<svg version="1.1" id="Layer_1" xmlns="http://www.w3.org/2000/svg" xmlns:xlink="http://www.w3.org/1999/xlink" x="0px" y="0px"
	 width="100%" viewBox="0 0 768 768" enable-background="new 0 0 768 768" xml:space="preserve">
<path fill="#F2FF5A" opacity="1.000000" stroke="none" 
	d="
M1.000001,488.000000 
	C1.000000,419.645782 1.000000,351.291534 1.285934,282.170410 
	C3.456890,253.845505 8.859276,226.996979 18.139723,200.977783 
	C25.487514,180.377075 34.554256,160.581207 46.788208,142.749008 
	C45.590942,146.569534 44.514442,150.038437 43.051945,153.336121 
	C39.710762,160.869949 36.138420,168.300903 32.741371,175.810440 
	C30.236898,181.346863 27.415363,186.797211 25.552933,192.550644 
	C23.677311,198.344833 22.054550,204.420761 24.544027,210.859818 
	C27.355797,206.948410 29.678659,202.908829 30.989220,198.563904 
	C32.592289,193.249176 31.680973,187.349823 34.411636,182.199295 
	C35.021999,181.048035 35.094616,179.569885 35.825497,178.531219 
	C40.100601,172.455765 44.625519,166.553116 48.803024,160.413147 
	C51.090672,157.050842 49.814610,150.956268 56.319126,150.887695 
	C56.520599,150.885574 56.728180,150.396500 56.913845,150.121552 
	C59.682426,146.021637 62.391037,141.879318 65.250648,137.843979 
	C66.044769,136.723373 67.137627,135.401733 68.345192,135.058777 
	C73.369408,133.631851 74.680450,130.781219 72.477158,126.919380 
	C74.291397,124.499809 75.758202,122.543587 76.627792,121.383842 
	C79.118614,120.336182 81.465233,120.052612 82.641945,118.728989 
	C87.062729,113.756302 90.893738,108.255219 95.365433,103.333450 
	C97.879974,100.565834 100.897705,97.433762 104.263069,96.468719 
	C108.472473,95.261642 110.926033,93.729080 110.734314,88.525055 
	C116.410866,91.371521 120.312981,88.487686 124.541702,86.020447 
	C131.473251,81.976250 138.625900,78.304298 145.748489,74.596748 
	C150.111603,72.325600 154.863724,70.698074 158.957642,68.037529 
	C165.230240,63.961121 171.081421,59.237041 177.124039,54.804996 
	C177.910782,54.227962 178.715393,53.607464 179.609772,53.258137 
	C182.028290,52.313519 184.499680,51.504211 186.950089,50.641235 
	C189.183670,49.827679 192.096100,50.015633 193.763718,48.665756 
	C202.413712,41.663883 212.563553,38.264275 223.040833,35.447273 
	C224.468887,35.063316 225.879868,34.459358 227.164017,33.722466 
	C234.479202,29.524719 241.814545,25.354778 248.991943,20.930252 
	C250.488251,20.007843 251.349075,18.054560 252.147125,17.032022 
	C247.204636,15.156960 243.424622,13.708475 239.631958,12.293906 
	C238.648834,11.927226 237.534454,11.236805 236.636688,11.428249 
	C231.391449,12.546792 226.084488,13.552212 221.000198,15.213511 
	C209.575195,18.946646 198.318161,23.194155 186.890839,26.919703 
	C181.825119,28.571228 176.512466,29.465294 171.586899,30.460634 
	C201.976242,15.750450 233.693085,6.840835 266.828766,2.873286 
	C272.545319,2.188810 278.275909,1.621455 284.000000,1.000000 
	C351.020905,1.000000 418.041779,1.000000 485.833099,1.284635 
	C509.258667,2.722872 531.570618,6.231524 553.140503,13.190740 
	C567.463867,17.811964 581.334473,23.836521 595.301392,29.530865 
	C592.474121,29.335697 589.653625,29.147711 587.049561,28.297003 
	C575.341248,24.472057 563.811035,20.051943 551.982727,16.662600 
	C544.600769,14.547329 536.828430,13.692856 529.179138,12.658079 
	C525.729797,12.191457 522.150085,12.591963 518.635864,12.745280 
	C517.045105,12.814678 515.424133,13.089437 513.902039,13.551519 
	C512.635193,13.936096 511.492828,14.730645 510.295319,15.343594 
	C511.016907,16.538979 511.452179,18.300137 512.508240,18.834518 
	C517.868286,21.546827 523.210388,24.503113 528.896484,26.313007 
	C537.145630,28.938700 545.897705,30.045078 554.050354,32.899086 
	C567.331726,37.548523 580.388489,42.880711 593.369141,48.331825 
	C600.380676,51.276279 607.138489,54.879623 613.828979,58.519802 
	C622.013367,62.972801 630.167053,67.524933 638.020996,72.525887 
	C642.415100,75.323807 645.708496,80.134262 650.318481,82.250237 
	C659.972290,86.681351 666.294128,94.702332 673.696350,101.592560 
	C674.674622,102.503220 675.243774,103.853516 675.774658,105.241196 
	C675.164368,110.162254 680.023376,109.654381 682.190247,112.218590 
	C682.920349,112.624420 683.458984,112.812393 684.001343,113.373756 
	C686.336731,116.498306 688.668396,119.249458 691.000000,122.000305 
	C691.000000,122.000000 691.000000,122.000305 691.168579,122.303055 
	C693.382324,124.920029 693.336182,129.413773 698.000000,128.999390 
	C698.000000,129.000000 698.002441,128.999390 698.013428,129.366028 
	C700.683594,133.154297 703.342834,136.575912 706.181885,140.297226 
	C709.408936,143.984070 712.711365,147.179291 715.439270,150.806564 
	C718.905884,155.416138 722.009644,160.311737 725.069275,165.209274 
	C726.882141,168.111038 727.639832,172.018555 730.049988,174.127289 
	C734.833984,178.312866 737.129944,183.786118 739.961731,189.082794 
	C740.716370,190.494156 742.071960,191.584183 743.247192,192.931290 
	C744.756897,190.991379 745.756897,189.706436 746.969055,188.690399 
	C756.638489,211.958786 763.015381,235.770950 766.084961,260.460876 
	C767.019531,267.978546 768.026306,275.487213 769.000000,283.000000 
	C769.000000,351.020905 769.000000,419.041779 768.714111,487.829590 
	C767.553223,496.865021 767.006592,505.183899 765.748474,513.393677 
	C759.096802,556.800842 743.913757,596.994873 719.719666,633.694275 
	C692.046387,675.671082 656.021851,708.632080 611.960022,732.776611 
	C596.027527,741.507141 579.505005,748.946228 561.712158,753.702637 
	C559.981750,754.221436 558.501404,754.957153 556.700684,755.812988 
	C555.928162,755.979187 555.475952,756.025085 554.886353,755.932068 
	C554.450562,755.972656 554.152222,756.152161 553.708618,756.472351 
	C553.563477,756.613037 553.162415,756.561707 553.072876,756.356506 
	C552.775269,756.287231 552.567139,756.423157 552.323853,756.588867 
	C552.288635,756.618774 552.196472,756.622986 551.986084,756.383179 
	C550.500366,755.982849 549.156738,755.480835 547.961609,755.720276 
	C542.363098,756.842041 536.846497,758.414185 531.221619,759.350891 
	C525.685608,760.272705 519.962891,760.209839 514.507568,761.417175 
	C512.124023,761.944763 508.126556,761.811768 507.769348,766.194824 
	C507.549713,766.271606 507.087097,766.221802 506.964478,766.069153 
	C506.590942,766.087708 506.340057,766.258972 505.729706,766.582642 
	C498.913483,767.490051 492.456757,768.244995 486.000000,769.000000 
	C418.645782,769.000000 351.291534,769.000000 283.168945,768.713867 
	C281.579620,768.309387 280.762146,768.126099 279.937225,768.082031 
	C246.320984,766.288879 214.069656,758.343262 183.337387,744.960022 
	C114.515358,714.989563 63.492832,666.087402 30.468761,598.623352 
	C22.411169,582.162659 15.720437,565.127075 12.010248,546.985962 
	C13.004331,545.005859 14.365375,543.136475 14.199839,541.413757 
	C13.415913,533.255615 11.849097,525.162598 11.289535,516.996521 
	C10.906456,511.406097 7.985207,508.339569 3.362414,505.608032 
	C2.482081,499.459534 1.741041,493.729767 1.000001,488.000000 
M673.734741,246.368042 
	C673.402649,245.011826 673.070557,243.655609 672.779846,242.468231 
	C663.416260,241.703445 655.751343,244.603027 648.934326,250.420380 
	C646.649536,252.370102 643.665344,253.500305 640.993042,254.196564 
	C640.636169,252.071259 640.574463,249.839828 639.857056,247.844131 
	C638.605408,244.362473 637.572571,240.527893 635.335266,237.731491 
	C630.577637,231.785034 623.375793,233.067810 617.059692,233.584518 
	C607.013855,234.406311 597.049011,236.229660 587.055115,237.665314 
	C585.541138,237.882782 583.438965,239.086639 582.660034,238.481400 
	C578.797058,235.479935 575.385254,238.376221 571.811951,238.792908 
	C569.913818,239.014221 568.032166,239.431152 566.129822,239.552475 
	C560.558167,239.907837 554.867004,239.583984 549.442322,240.647003 
	C545.620483,241.395950 542.229980,242.622025 537.986694,242.496368 
	C529.712036,242.251343 521.374268,243.848740 513.077515,244.811066 
	C510.579987,245.100769 508.147186,246.145294 505.657227,246.263092 
	C500.397034,246.511932 495.118164,246.348068 489.848541,246.442764 
	C489.277435,246.453033 488.753296,247.175323 488.144836,247.351852 
	C486.069092,247.954117 483.983765,248.806030 481.867828,248.918549 
	C478.965363,249.072891 476.008606,248.339508 473.119202,248.561142 
	C471.174164,248.710327 469.350952,250.194992 467.389832,250.456436 
	C465.351379,250.728195 463.172028,249.909470 461.124847,250.155197 
	C453.384827,251.084213 445.677826,252.284363 437.949860,253.319061 
	C432.541107,254.043228 427.128601,254.765320 421.699768,255.308319 
	C410.899536,256.388611 400.092316,257.407623 389.277863,258.334229 
	C378.828522,259.229523 368.352692,259.835968 357.917053,260.860229 
	C353.915466,261.253021 350.022034,262.922668 346.027374,263.169067 
	C340.316986,263.521362 334.519836,262.635803 328.830017,263.114471 
	C319.191803,263.925262 309.606506,265.373047 300.002899,266.584229 
	C293.770447,267.370270 287.547699,268.233063 281.315613,269.022156 
	C275.573273,269.749237 269.829254,270.468140 264.076904,271.109528 
	C257.785065,271.811127 251.487045,272.464111 245.184097,273.057251 
	C237.533829,273.777191 229.870316,274.357941 222.222183,275.098541 
	C213.125076,275.979370 204.042542,277.010742 194.945587,277.893188 
	C187.125702,278.651733 179.276138,279.134155 171.473648,280.033356 
	C164.675079,280.816803 157.949829,282.270355 151.144562,282.952484 
	C144.298492,283.638733 137.378922,283.563354 130.518356,284.140411 
	C122.302574,284.831451 113.999268,285.320160 105.979752,287.041870 
	C103.253494,287.627136 97.773315,287.201385 97.959915,293.048920 
	C97.959915,293.048920 97.836426,293.022278 97.440193,293.529449 
	C96.072189,294.609589 94.704178,295.689728 93.336166,296.769897 
	C92.718445,296.529846 92.100723,296.289825 91.483002,296.049774 
	C91.990410,298.709991 92.497818,301.370239 92.348312,303.834198 
	C89.991196,302.819031 87.248009,300.466797 85.342834,301.016907 
	C76.417519,303.593903 67.442535,307.193024 63.790787,316.567566 
	C60.190380,325.810364 57.157051,335.456207 55.430466,345.200836 
	C53.257740,357.463470 57.520702,371.312927 70.558907,376.453613 
	C72.685844,376.517181 74.812790,376.580719 77.589912,376.324890 
	C78.067513,376.252838 78.545113,376.180756 79.528008,376.462830 
	C89.840935,374.413849 100.050117,359.027527 98.268066,347.427795 
	C98.312553,346.986755 98.357040,346.545685 99.030258,345.807404 
	C100.020348,342.809113 101.010437,339.810791 102.156960,337.740265 
	C102.491249,343.554871 102.825539,349.369507 103.123123,355.887665 
	C103.160576,356.591858 103.198029,357.296021 103.030823,358.767212 
	C103.145935,359.537292 103.261055,360.307343 103.376884,361.667297 
	C103.429535,362.054565 103.482185,362.441864 103.195175,363.505768 
	C103.230484,364.003601 103.265793,364.501404 103.112640,365.482300 
	C103.119453,365.654999 103.126274,365.827667 102.792313,366.525513 
	C102.831123,366.936127 102.869942,367.346771 102.599220,368.047058 
	C102.430588,368.304108 102.403137,368.575409 102.175568,369.669647 
	C102.282883,370.811768 102.390190,371.953918 102.411049,373.420197 
	C102.513954,373.669037 102.697083,373.764954 103.497894,374.255066 
	C104.198975,374.555664 104.900055,374.856232 105.755653,375.828125 
	C106.304131,378.787903 106.852608,381.747681 107.442688,384.931976 
	C109.011665,384.931976 110.466164,384.931976 112.114182,385.408112 
	C110.645065,386.238312 109.175941,387.068512 107.500206,388.015472 
	C114.824104,393.214844 122.494690,390.887024 129.572266,388.934326 
	C135.900177,387.188446 143.080383,390.207153 148.688644,385.244965 
	C148.796661,385.149384 149.268295,385.572052 149.569580,385.570892 
	C152.409256,385.560211 155.266479,385.698730 158.084946,385.434631 
	C165.748718,384.716583 173.390472,383.766235 181.051208,383.012299 
	C193.844910,381.753204 206.649765,380.607635 219.444092,379.354736 
	C233.933777,377.935883 248.412460,376.403656 262.904633,375.011475 
	C273.370453,374.006042 283.865295,373.289368 294.320282,372.188385 
	C306.154694,370.942200 317.944000,369.264954 329.780304,368.039795 
	C344.845032,366.480408 359.949524,365.305267 375.013947,363.743164 
	C388.734497,362.320404 402.411011,360.473267 416.131409,359.048706 
	C430.755096,357.530396 445.424011,356.443115 460.042999,354.884491 
	C476.310791,353.150055 492.533661,350.997559 508.795868,349.206360 
	C529.840088,346.888458 550.908569,344.790649 571.957092,342.510834 
	C580.739685,341.559540 589.473755,340.055603 598.274414,339.404144 
	C606.658447,338.783478 615.101379,338.975739 623.514343,338.689880 
	C624.025574,338.672546 624.500732,337.591980 625.804321,337.000824 
	C633.005981,336.053528 640.449097,335.872253 646.463501,330.998718 
	C642.306213,321.274567 643.657715,316.367126 651.335815,314.374878 
	C655.412415,313.661194 659.653259,313.430267 663.524292,312.112579 
	C668.452881,310.434906 673.199951,308.088013 677.749512,305.537628 
	C678.767273,304.967072 678.639587,302.353271 679.039246,300.680145 
	C677.365601,300.411835 675.593628,299.648407 674.034790,299.958069 
	C665.771912,301.599426 657.626526,303.946930 649.310852,305.165131 
	C644.276306,305.902649 642.639404,302.893890 644.955811,298.252838 
	C646.120422,295.919556 647.628845,293.585693 649.511353,291.815186 
	C655.174866,286.488556 661.175354,281.520630 666.855469,276.210663 
	C667.979858,275.159576 668.263184,273.208801 668.934326,271.672882 
	C667.406311,271.365540 665.866699,270.753448 664.352478,270.810944 
	C660.573853,270.954285 656.806702,271.401917 653.034973,271.727448 
	C652.891113,271.173920 652.747314,270.620392 652.603455,270.066833 
	C653.849304,269.150543 654.969910,267.785828 656.363037,267.397034 
	C661.866699,265.860962 667.424316,264.475189 673.024780,263.344910 
	C676.481323,262.647339 681.025452,262.569122 679.976685,257.814972 
	C679.120911,253.935547 676.065430,250.541382 673.734741,246.368042 
M172.989746,522.500000 
	C172.989746,541.575012 172.989746,560.650024 172.989746,579.996338 
	C190.016281,579.996338 206.319962,580.181519 222.617783,579.951965 
	C245.649597,579.627563 259.180878,560.341675 251.060547,538.670227 
	C248.871292,532.827576 243.758713,528.080383 239.754456,522.505188 
	C240.167496,522.012878 241.433121,520.680847 242.499237,519.204834 
	C249.112350,510.048767 249.738602,500.053711 245.893280,489.799591 
	C242.334198,480.308777 234.328888,475.752075 224.946075,475.257721 
	C208.016388,474.365784 191.024063,474.660431 174.057602,474.489136 
	C173.800491,474.486542 173.539536,474.865662 172.989746,475.292053 
	C172.989746,490.545074 172.989746,506.022552 172.989746,522.500000 
M495.900513,544.374756 
	C496.613892,568.559937 520.001465,588.928223 550.668274,580.206055 
	C568.871643,575.028687 578.526306,560.524963 578.672546,539.987854 
	C578.818481,519.493774 578.713440,498.997833 578.690247,478.502747 
	C578.688843,477.228973 578.441467,475.955475 578.305786,474.655945 
	C567.404114,474.655945 556.842834,474.655945 545.797913,474.655945 
	C545.797913,483.951782 545.797913,492.874390 545.797913,501.789062 
	C513.780701,500.862579 495.905701,515.931274 495.900513,544.374756 
M350.216766,529.978149 
	C343.842255,561.267395 362.264435,583.342407 393.748627,581.945129 
	C401.303589,581.609802 408.822479,580.517273 416.375214,580.056030 
	C421.129303,579.765747 425.915497,580.001892 430.914551,580.001892 
	C430.914551,564.924744 431.409241,550.446289 430.741241,536.021545 
	C430.293396,526.350586 426.436340,517.572388 418.918976,510.912567 
	C396.710266,491.237274 361.112976,500.757751 350.216766,529.978149 
M259.376740,532.058167 
	C256.051727,548.669800 260.264709,562.939392 273.711975,573.471436 
	C287.561951,584.318909 303.283234,584.885071 318.899506,578.168640 
	C336.165375,570.742859 344.926514,551.417908 340.784149,532.450989 
	C336.925201,514.781799 320.954681,501.800873 302.432953,501.279053 
	C281.048584,500.676544 264.578979,512.216431 259.376740,532.058167 
M494.194183,524.438904 
	C494.194153,519.448303 494.194550,514.457764 494.194000,509.467163 
	C494.193207,502.427216 494.216766,502.161652 487.180084,501.530396 
	C467.510956,499.765961 453.024078,508.258942 448.512268,527.778015 
	C447.295227,533.043152 447.383392,538.663940 447.306152,544.127625 
	C447.139771,555.895081 447.255096,567.666504 447.255096,579.600342 
	C458.459167,579.600342 469.125702,579.600342 479.995758,579.600342 
	C479.995758,567.726929 479.941864,556.256287 480.038696,544.786804 
	C480.059448,542.328979 480.255951,539.752319 481.024445,537.448181 
	C482.313171,533.584473 484.690338,531.164795 489.315582,533.140747 
	C490.577148,533.679749 492.124756,533.549194 494.194275,533.807373 
	C494.194275,530.643860 494.194275,528.029358 494.194183,524.438904 
M687.674438,252.200348 
	C686.749451,253.373199 685.720032,254.478973 684.916260,255.729691 
	C679.587402,264.022003 680.648743,270.240753 688.814758,275.780945 
	C693.055176,278.657837 697.835754,280.726715 702.275696,283.325684 
	C705.123596,284.992706 708.121887,286.635468 710.407898,288.931335 
	C711.546753,290.075195 712.212036,293.661713 711.421997,294.432892 
	C706.570251,299.168701 700.887756,302.632141 694.247559,303.177002 
	C690.457886,297.765747 699.242065,293.545319 693.769287,287.354645 
	C690.853760,291.701660 687.942261,295.406586 685.724304,299.488342 
	C681.716003,306.865082 684.748901,313.199341 693.085999,312.773102 
	C699.867981,312.426300 707.308533,310.328644 713.009277,306.720276 
	C722.806335,300.519104 722.761475,289.073883 714.017700,281.430786 
	C711.542725,279.267365 708.585022,277.638153 705.776184,275.879913 
	C702.962708,274.118774 699.926941,272.689178 697.222656,270.782288 
	C692.270935,267.290649 692.536926,263.751465 698.444824,262.189575 
	C704.259583,260.652344 710.505554,260.062164 716.537903,260.191772 
	C725.635803,260.387299 732.773621,252.189438 730.052063,243.364639 
	C729.611877,241.937134 727.322388,240.355164 725.707397,240.128174 
	C711.448730,238.124130 698.662109,241.277740 687.674438,252.200348 
z"/>
<path fill="#FFFFFF" opacity="1.000000" stroke="none" 
	d="
M595.407715,29.232910 
	C581.334473,23.836521 567.463867,17.811964 553.140503,13.190740 
	C531.570618,6.231524 509.258667,2.722872 486.301758,1.284635 
	C580.260254,1.000000 674.520508,1.000000 769.000000,1.000000 
	C769.000000,94.687447 769.000000,188.375061 769.000000,282.531342 
	C768.026306,275.487213 767.019531,267.978546 766.084961,260.460876 
	C763.015381,235.770950 756.638489,211.958786 746.911316,188.336731 
	C744.119324,181.921112 742.057678,175.869095 738.976257,170.390671 
	C733.137878,160.010849 726.821777,149.892883 720.499512,139.794281 
	C715.605286,131.976868 711.123474,123.735283 705.174622,116.780312 
	C694.249817,104.007843 683.366943,91.277809 670.553833,80.021011 
	C660.452393,71.146523 650.919067,61.527699 639.551514,54.391216 
	C625.220459,45.394211 610.155884,37.565586 595.407715,29.232910 
z"/>
<path fill="#FFFFFF" opacity="1.000000" stroke="none" 
	d="
M46.733692,142.319626 
	C34.554256,160.581207 25.487514,180.377075 18.139723,200.977783 
	C8.859276,226.996979 3.456890,253.845505 1.285934,281.701721 
	C1.000000,188.406021 1.000000,94.812035 1.000000,1.000000 
	C95.020782,1.000000 189.041733,1.000000 283.531342,1.000000 
	C278.275909,1.621455 272.545319,2.188810 266.828766,2.873286 
	C233.693085,6.840835 201.976242,15.750450 171.268875,30.513824 
	C152.475067,39.492710 135.281555,49.889637 119.392601,62.268326 
	C104.777176,73.654839 91.188301,86.082794 78.800041,100.075317 
	C66.987419,113.417633 55.959854,127.123116 46.733692,142.319626 
z"/>
<path fill="#FFFFFF" opacity="1.000000" stroke="none" 
	d="
M561.962158,753.919556 
	C579.505005,748.946228 596.027527,741.507141 611.960022,732.776611 
	C656.021851,708.632080 692.046387,675.671082 719.719666,633.694275 
	C743.913757,596.994873 759.096802,556.800842 765.748474,513.393677 
	C767.006592,505.183899 767.553223,496.865021 768.714111,488.298248 
	C769.000000,581.593994 769.000000,675.187927 769.000000,769.000000 
	C674.979248,769.000000 580.958252,769.000000 486.468658,769.000000 
	C492.456757,768.244995 498.913483,767.490051 505.987183,766.568237 
	C506.765106,766.341492 506.926086,766.281677 507.087097,766.221802 
	C507.087097,766.221802 507.549713,766.271606 508.215576,766.208496 
	C512.157288,765.724060 515.498291,765.580872 518.697144,764.831177 
	C529.890076,762.208130 541.033936,759.375854 552.196472,756.622986 
	C552.196472,756.622986 552.288635,756.618774 552.521118,756.658936 
	C552.753540,756.699036 553.162415,756.561707 553.162415,756.561707 
	C553.162415,756.561707 553.563477,756.613037 554.011902,756.450439 
	C554.648193,756.215515 554.835999,756.143250 555.023743,756.071045 
	C555.475952,756.025085 555.928162,755.979187 557.033875,755.792358 
	C559.112305,755.074158 560.537231,754.496887 561.962158,753.919556 
z"/>
<path fill="#FFFFFF" opacity="1.000000" stroke="none" 
	d="
M1.000001,488.468658 
	C1.741041,493.729767 2.482081,499.459534 3.350627,506.006165 
	C6.210030,520.270142 8.941926,533.717163 11.673820,547.164246 
	C15.720437,565.127075 22.411169,582.162659 30.468761,598.623352 
	C63.492832,666.087402 114.515358,714.989563 183.337387,744.960022 
	C214.069656,758.343262 246.320984,766.288879 279.937225,768.082031 
	C280.762146,768.126099 281.579620,768.309387 282.700287,768.713867 
	C189.073074,769.000000 95.146141,769.000000 1.000000,769.000000 
	C1.000000,675.645874 1.000000,582.291626 1.000001,488.468658 
z"/>
<path fill="#FA119A" opacity="1.000000" stroke="none" 
	d="
M103.159828,355.184113 
	C102.825539,349.369507 102.491249,343.554871 102.110176,336.862305 
	C101.392845,331.198944 100.722305,326.413544 100.021675,321.231384 
	C99.661224,318.079468 99.330849,315.324341 99.031448,312.071228 
	C98.653748,305.389618 98.245087,299.205963 97.836426,293.022278 
	C97.836426,293.022278 97.959915,293.048920 98.350952,292.953247 
	C100.186333,292.596069 101.630684,292.334534 103.441483,292.118530 
	C104.535698,292.084198 105.263466,292.004395 106.423172,291.996368 
	C138.934875,288.748108 171.014511,285.426697 203.094452,282.108429 
	C241.624695,278.122955 280.153442,274.122955 318.686066,270.160675 
	C364.327606,265.467407 409.972534,260.807312 455.616058,256.133484 
	C497.123352,251.883255 538.629822,247.625748 580.138428,243.388275 
	C595.516907,241.818314 610.912415,240.405975 626.273804,238.685913 
	C630.926575,238.164917 632.544617,239.807281 632.412598,244.331329 
	C632.306885,247.954910 632.824829,251.596680 632.772461,255.017181 
	C629.315491,253.460754 626.266052,251.493454 622.967285,250.890457 
	C612.765259,249.025497 603.300293,252.756317 593.819946,255.708969 
	C585.364014,258.342560 584.385376,260.476410 586.180420,269.342987 
	C586.958923,273.188354 588.968384,274.365784 592.601135,273.229614 
	C593.611267,272.913666 594.664978,272.737183 596.472046,272.316833 
	C594.527954,281.442474 592.368408,289.794250 591.051208,298.276794 
	C589.796204,306.358673 587.427551,313.046967 578.326477,314.918182 
	C577.561462,315.075470 576.409119,315.617310 576.272461,316.182556 
	C575.571228,319.083160 574.233948,322.259888 574.852600,324.939911 
	C575.613037,328.233734 578.849243,327.645691 581.921448,327.277985 
	C589.556274,326.364258 595.312195,322.161163 601.228210,317.859680 
	C613.743469,308.759888 624.466064,298.199158 630.598328,283.666534 
	C632.191406,279.891083 633.646851,276.057526 635.222961,272.738403 
	C635.897461,279.522949 636.514526,285.819763 637.091248,292.569275 
	C637.489014,297.681183 637.927063,302.340393 638.363281,307.406036 
	C639.227478,314.212921 640.093567,320.613403 640.978638,327.013000 
	C640.997681,327.012115 640.979004,327.047668 640.969482,327.407593 
	C640.917786,328.482849 640.875610,329.198151 640.531006,329.985352 
	C639.429504,330.285553 638.630493,330.513916 637.522217,330.695190 
	C636.816162,330.773346 636.419434,330.898560 635.762451,330.967194 
	C635.333801,330.966797 635.165344,331.022949 634.565063,331.040894 
	C631.416016,331.304901 628.698914,331.607178 625.725708,331.898804 
	C625.310974,331.951477 625.152283,332.014832 624.564575,332.003174 
	C621.093628,332.294586 618.051758,332.661011 614.755859,332.969238 
	C614.337097,332.966248 614.172363,333.021393 613.567139,333.033081 
	C607.419739,333.667206 601.712952,334.344727 595.752930,334.965576 
	C595.335999,334.964355 595.172180,335.019775 594.595947,335.001831 
	C591.792358,335.294739 589.401184,335.661011 586.752319,335.969452 
	C586.327637,335.967102 586.160522,336.022583 585.575439,335.996582 
	C582.742004,336.254364 580.326599,336.593658 577.518311,336.887634 
	C575.335449,337.083466 573.545532,337.324615 571.356934,337.505402 
	C569.642517,337.637634 568.326721,337.830231 566.747498,337.966064 
	C566.313477,337.965576 566.142822,338.021790 565.566650,337.997437 
	C563.077759,338.255432 560.994507,338.594055 558.547668,338.885773 
	C557.461365,338.917755 556.738647,338.996613 555.572754,339.002380 
	C539.917786,340.449127 524.702209,341.932495 509.494720,343.495361 
	C449.010040,349.711334 388.528809,355.960876 328.044556,362.180939 
	C275.343231,367.600677 222.635757,372.960938 169.939178,378.426270 
	C153.605179,380.120331 137.297958,382.072449 120.603165,383.868103 
	C119.483109,383.912537 118.738358,383.995239 117.600533,384.008209 
	C115.445190,384.269653 113.682930,384.600800 111.920662,384.931976 
	C110.466164,384.931976 109.011665,384.931976 107.442688,384.931976 
	C106.852608,381.747681 106.304131,378.787903 106.002960,375.365906 
	C106.865501,374.670441 107.464439,374.301117 108.098518,374.225128 
	C113.646233,373.560516 116.690407,371.352905 117.427002,364.943451 
	C118.401222,356.466309 121.090889,348.181671 123.120346,339.833069 
	C123.783272,337.106018 125.493370,336.031097 128.488846,335.726074 
	C132.027008,335.365814 135.685623,334.369629 138.882095,332.809326 
	C148.971436,327.884369 159.214203,323.079895 166.744965,314.016327 
	C166.228210,318.006073 165.440445,321.726410 164.360046,325.359741 
	C161.584641,334.693451 161.087708,343.955658 164.965958,353.107239 
	C170.299179,365.692322 184.012115,369.667114 193.187805,360.952606 
	C198.490372,355.916595 202.624664,349.684723 203.787003,342.284241 
	C205.192001,333.338928 205.582184,324.234314 206.985489,315.288666 
	C208.082306,308.296875 206.668579,302.137543 202.894669,296.373505 
	C198.047028,288.969513 191.436386,287.642365 184.198090,292.672882 
	C179.803711,295.726898 175.537430,298.965271 171.229858,302.108917 
	C168.697083,295.683197 161.597580,290.567871 154.500473,291.701477 
	C143.569580,293.447479 132.809586,296.256653 121.966187,298.563507 
	C120.095253,298.961517 118.105667,298.885437 116.285843,299.419830 
	C113.752396,300.163788 109.749664,300.726227 109.184174,302.346558 
	C108.004784,305.725891 108.666573,309.747772 108.571892,313.505676 
	C111.092209,313.512817 113.612717,313.507782 116.132591,313.544952 
	C116.400978,313.548889 116.665733,313.799561 116.425758,313.676880 
	C112.570236,327.474701 108.750504,341.144379 104.646179,354.918335 
	C103.960991,355.076447 103.560410,355.130280 103.159828,355.184113 
M257.694122,337.152588 
	C256.514038,333.520081 255.453323,329.842926 254.116104,326.269226 
	C253.046631,323.411072 253.471695,321.788025 256.135559,319.647552 
	C263.463287,313.759613 269.471191,306.664124 271.038666,296.913269 
	C272.201508,289.679840 267.880737,283.586243 260.677429,282.808594 
	C246.875107,281.318573 234.043289,285.493011 221.558792,290.643158 
	C217.164536,292.455841 214.559982,301.334808 216.409042,305.638000 
	C218.509613,310.526489 222.086777,308.161407 225.340637,307.450958 
	C225.589096,307.396698 225.916107,307.702179 226.791061,308.118622 
	C224.827621,314.611877 223.039474,321.270416 220.753204,327.753326 
	C219.703110,330.730988 217.675659,333.363922 216.499207,335.435211 
	C216.499207,337.928101 216.793152,340.149750 216.443832,342.265137 
	C215.416748,348.484894 213.958801,354.638092 213.093857,360.876221 
	C212.911774,362.189423 214.427460,364.912415 215.352554,365.001831 
	C219.394806,365.392426 227.885315,357.806122 228.996750,353.797302 
	C231.052124,346.383667 233.369659,339.042725 235.943695,330.450867 
	C237.456955,332.616241 238.222397,333.589783 238.858505,334.641510 
	C243.060028,341.588013 247.021484,348.694733 251.558594,355.413300 
	C252.765335,357.200256 255.710220,357.813446 257.857086,358.965546 
	C258.441895,356.565521 259.589264,354.142334 259.491638,351.770416 
	C259.302277,347.170929 258.412781,342.600220 257.694122,337.152588 
M417.404358,310.087463 
	C419.468689,302.599976 421.634277,295.138275 423.547546,287.612366 
	C424.313599,284.599091 425.042633,281.413483 424.860107,278.361877 
	C424.614716,274.259583 421.885651,271.608582 417.731964,273.120056 
	C413.528534,274.649658 408.956207,276.564484 405.957886,279.672974 
	C401.644958,284.144287 398.548248,289.807007 395.052368,295.041290 
	C392.930878,298.217804 391.035431,301.545288 389.038452,304.804932 
	C388.634705,304.611145 388.230957,304.417328 387.827209,304.223541 
	C388.460175,300.670593 389.125336,297.123016 389.717896,293.563324 
	C390.457062,289.123230 387.768616,285.264008 383.406586,284.415588 
	C377.317474,283.231201 373.461426,284.919342 372.434998,289.599823 
	C370.766327,297.209045 369.609283,304.936005 367.782104,312.503571 
	C365.269470,322.910278 363.578979,333.293213 364.711487,344.076447 
	C365.151672,348.267609 366.820496,349.295135 370.528656,348.240509 
	C375.386780,346.858887 378.377777,343.834381 379.872498,338.895447 
	C381.639679,333.056244 383.348755,327.072784 386.130096,321.693237 
	C392.128204,310.092072 398.788452,298.832916 405.218353,287.456726 
	C405.454437,287.039032 406.117035,286.862366 407.072266,286.267242 
	C406.826416,288.345734 406.690735,289.814453 406.474091,291.271179 
	C405.230591,299.632935 403.594269,307.958710 402.849884,316.363892 
	C402.393707,321.514374 402.650543,326.929565 403.778381,331.958771 
	C404.790466,336.471588 408.417358,337.231110 412.816925,335.602875 
	C418.306488,333.571167 420.764069,328.809784 423.563446,324.373199 
	C424.053864,323.595947 423.231445,321.990295 422.866302,319.923920 
	C420.325226,322.144409 418.683746,323.578796 416.346558,325.621124 
	C416.649567,320.039215 416.896210,315.495728 417.404358,310.087463 
M494.264130,325.793854 
	C509.189117,314.120148 519.650513,299.574738 523.598022,280.721619 
	C525.089050,273.600311 523.406921,266.939575 518.074585,264.621521 
	C514.260986,262.963654 509.593994,261.625244 505.643372,262.253693 
	C496.200470,263.755890 486.880341,266.250458 477.698639,268.977325 
	C475.982330,269.487061 474.125549,272.947540 474.131927,275.040833 
	C474.141724,278.272461 475.582153,281.544067 476.739929,284.679016 
	C476.908508,285.135468 478.881622,285.075439 479.999847,284.990936 
	C481.221710,284.898529 482.420380,284.499817 484.604218,284.020782 
	C482.449738,294.290100 480.266724,303.776703 478.521271,313.343140 
	C477.388916,319.549530 474.916229,323.845184 468.269775,325.683777 
	C463.274963,327.065521 460.951263,331.944977 462.558563,335.743805 
	C464.619263,340.614227 468.818848,339.261200 472.465393,338.495758 
	C480.866943,336.732117 487.092773,331.120605 494.264130,325.793854 
M330.946411,310.536316 
	C331.899597,307.020111 332.834381,303.498779 333.810486,299.988922 
	C335.120392,295.278656 333.738220,291.947845 328.994598,290.748962 
	C325.772430,289.934570 322.200348,290.193970 318.826385,290.474579 
	C317.774384,290.562103 316.191803,292.162628 315.981903,293.282318 
	C313.384186,307.139709 310.462372,320.970184 308.729401,334.944672 
	C307.447083,345.285278 315.721710,350.184143 325.013885,345.299408 
	C326.734344,344.395020 328.172821,342.934753 329.692505,341.672150 
	C332.801453,339.089142 335.877136,336.466125 339.950562,333.029327 
	C340.107727,336.096680 339.768372,338.002991 340.389648,339.514496 
	C341.232269,341.564636 342.458984,344.444153 344.142548,344.967224 
	C348.361542,346.278076 352.128021,344.669373 355.097595,341.059662 
	C357.191284,338.514648 356.422455,336.736725 354.743530,334.502563 
	C353.836487,333.295532 353.075134,331.482086 353.242188,330.058899 
	C353.723419,325.957977 354.476654,321.853973 355.543030,317.863434 
	C358.405457,307.151459 361.576965,296.521454 364.373718,285.793213 
	C364.748566,284.355286 363.742706,281.151978 363.251984,281.126160 
	C360.450073,280.978668 357.136597,280.314697 355.843201,284.248352 
	C354.028442,289.767792 351.692688,295.138580 350.209564,300.739685 
	C347.053650,312.657928 342.407898,323.679108 333.241943,332.307129 
	C331.174164,334.253571 328.954224,336.038269 326.804321,337.897430 
	C326.484070,337.639374 326.163849,337.381348 325.843628,337.123291 
	C327.516449,328.542877 329.189301,319.962433 330.946411,310.536316 
M527.480347,304.166351 
	C528.414673,305.043854 529.348999,305.921356 530.404114,306.912262 
	C528.079651,310.407501 525.332458,313.491943 523.930054,317.099152 
	C523.253052,318.840576 524.510803,322.096588 525.956909,323.716858 
	C527.972107,325.974823 529.686035,323.991333 530.930481,321.959015 
	C532.051147,320.128754 533.876343,318.560913 534.460754,316.600098 
	C537.130005,307.643921 545.527771,306.061157 552.569214,301.677124 
	C554.219116,308.055664 555.630981,313.986938 557.321594,319.837646 
	C558.091797,322.503357 558.909485,325.448334 560.648987,327.444641 
	C561.948547,328.936127 564.760193,329.110077 566.898560,329.870697 
	C567.437866,328.007416 568.568665,326.092224 568.410583,324.290131 
	C567.830444,317.679108 566.365845,311.124451 566.093262,304.513184 
	C565.772339,296.726898 566.154663,288.815735 575.486023,285.576996 
	C575.793152,285.470367 575.890503,284.759186 576.097656,284.303223 
	C573.175049,279.946899 570.185730,284.650482 567.258911,284.217804 
	C567.724304,276.186340 568.444336,268.268951 568.513062,260.345886 
	C568.540466,257.195557 567.991028,253.302795 566.119995,251.083649 
	C564.300232,248.925156 560.494995,247.783508 557.477173,247.602554 
	C556.197632,247.525818 554.314026,250.873245 553.411560,252.968735 
	C552.446960,255.208817 552.000366,257.791107 551.871033,260.252594 
	C550.979492,277.213043 540.932800,290.045715 533.571472,303.116608 
	C530.684509,303.329315 528.873291,303.462769 527.480347,304.166351 
M292.221924,342.600708 
	C292.574463,341.320465 293.169403,340.053864 293.242584,338.757874 
	C294.122253,323.175812 299.713623,308.781250 304.403687,294.161591 
	C305.475952,290.819183 307.456665,288.739960 311.190399,287.726349 
	C314.765808,286.755798 318.430389,284.957123 321.166260,282.522736 
	C322.604858,281.242645 322.384979,277.822083 322.365967,275.372284 
	C322.361145,274.748688 320.109741,273.426788 319.154907,273.635468 
	C307.979736,276.077576 296.758881,278.409790 285.759369,281.512848 
	C280.582214,282.973450 275.856140,286.033051 270.925690,288.368073 
	C271.037201,289.073608 271.148743,289.779144 271.260254,290.484680 
	C274.356445,291.235992 277.422668,292.161011 280.555237,292.701019 
	C286.383667,293.705750 287.423553,294.958771 286.382599,300.618591 
	C286.023102,302.573212 285.474213,304.492554 285.025299,306.431122 
	C283.043396,314.989502 280.384766,323.464508 279.309906,332.135620 
	C278.495697,338.704315 279.388794,345.560303 280.164612,352.213531 
	C280.478821,354.908051 283.494904,356.789429 285.671875,354.255096 
	C288.355133,351.131317 289.944824,347.068176 292.221924,342.600708 
M452.864136,292.268463 
	C453.517914,285.587250 453.694672,278.651245 462.575653,277.143860 
	C463.251892,277.029114 464.135651,275.146179 464.068909,274.141876 
	C463.701080,268.606079 460.140961,266.217865 454.705658,267.889069 
	C451.388336,268.909058 448.283905,270.719971 444.926605,271.489288 
	C439.155670,272.811737 438.076447,277.285095 436.620514,281.785004 
	C443.335114,284.652069 443.836548,284.722626 442.792419,292.143341 
	C441.572906,300.810730 439.110504,309.297516 437.697906,317.946045 
	C437.053864,321.889160 435.151642,323.987274 431.817169,325.738800 
	C429.136780,327.146759 426.702942,329.183411 424.535645,331.322052 
	C423.779022,332.068726 423.531342,334.576843 424.139435,335.175842 
	C425.109467,336.131409 427.141876,336.780609 428.454071,336.457794 
	C431.286804,335.761017 433.858124,333.934357 436.697266,333.345245 
	C442.396027,332.162842 448.202576,331.499847 454.618591,330.522888 
	C454.791016,329.877380 455.410004,327.991852 455.786011,326.059082 
	C456.495667,322.411011 456.603851,319.172089 451.216705,319.818848 
	C448.464233,320.149292 447.742645,318.476654 448.226440,316.037140 
	C449.740356,308.403290 451.250793,300.768768 452.864136,292.268463 
z"/>
<path fill="#ED1D24" opacity="1.000000" stroke="none" 
	d="
M172.989746,522.000000 
	C172.989746,506.022552 172.989746,490.545074 172.989746,475.292053 
	C173.539536,474.865662 173.800491,474.486542 174.057602,474.489136 
	C191.024063,474.660431 208.016388,474.365784 224.946075,475.257721 
	C234.328888,475.752075 242.334198,480.308777 245.893280,489.799591 
	C249.738602,500.053711 249.112350,510.048767 242.499237,519.204834 
	C241.433121,520.680847 240.167496,522.012878 239.754456,522.505188 
	C243.758713,528.080383 248.871292,532.827576 251.060547,538.670227 
	C259.180878,560.341675 245.649597,579.627563 222.617783,579.951965 
	C206.319962,580.181519 190.016281,579.996338 172.989746,579.996338 
	C172.989746,560.650024 172.989746,541.575012 172.989746,522.000000 
M208.062057,548.359253 
	C207.565826,551.594788 208.809784,552.964600 212.165222,552.432495 
	C213.950470,552.149414 216.045639,552.739868 217.542725,552.003906 
	C219.275467,551.152161 221.735123,549.189819 221.642502,547.866150 
	C221.525375,546.192322 219.395676,543.743713 217.697693,543.300476 
	C214.804352,542.545044 211.570877,543.092346 208.261826,543.092346 
	C208.180496,544.869995 208.121277,546.164429 208.062057,548.359253 
M215.369659,512.841431 
	C215.569748,510.583801 216.763412,507.458130 215.731445,506.276917 
	C214.272110,504.606537 211.169067,504.372192 208.571411,503.454315 
	C208.571411,508.025726 208.571411,511.347443 208.571411,515.260803 
	C211.040878,514.488586 212.894501,513.908997 215.369659,512.841431 
z"/>
<path fill="#ED1E25" opacity="1.000000" stroke="none" 
	d="
M495.899353,543.900513 
	C495.905701,515.931274 513.780701,500.862579 545.797913,501.789062 
	C545.797913,492.874390 545.797913,483.951782 545.797913,474.655945 
	C556.842834,474.655945 567.404114,474.655945 578.305786,474.655945 
	C578.441467,475.955475 578.688843,477.228973 578.690247,478.502747 
	C578.713440,498.997833 578.818481,519.493774 578.672546,539.987854 
	C578.526306,560.524963 568.871643,575.028687 550.668274,580.206055 
	C520.001465,588.928223 496.613892,568.559937 495.899353,543.900513 
M530.468933,547.721375 
	C533.105774,550.647949 536.035461,553.660645 540.249878,551.350830 
	C547.094421,547.599548 545.812439,540.817444 545.960571,534.660583 
	C541.048706,533.333618 536.479919,528.566956 531.719421,534.570007 
	C528.618530,538.480103 527.933960,542.531677 530.468933,547.721375 
z"/>
<path fill="#ED1D24" opacity="1.000000" stroke="none" 
	d="
M350.335205,529.587524 
	C361.112976,500.757751 396.710266,491.237274 418.918976,510.912567 
	C426.436340,517.572388 430.293396,526.350586 430.741241,536.021545 
	C431.409241,550.446289 430.914551,564.924744 430.914551,580.001892 
	C425.915497,580.001892 421.129303,579.765747 416.375214,580.056030 
	C408.822479,580.517273 401.303589,581.609802 393.748627,581.945129 
	C362.264435,583.342407 343.842255,561.267395 350.335205,529.587524 
M386.825623,551.033142 
	C390.631683,551.033142 394.437775,551.033142 399.645660,551.033142 
	C398.365936,545.174805 398.061188,539.916382 396.021454,535.450256 
	C393.636597,530.228394 388.676636,530.154053 384.745758,534.361267 
	C380.301971,539.117432 380.851166,545.557251 386.825623,551.033142 
z"/>
<path fill="#ED1D24" opacity="1.000000" stroke="none" 
	d="
M259.504395,531.663391 
	C264.578979,512.216431 281.048584,500.676544 302.432953,501.279053 
	C320.954681,501.800873 336.925201,514.781799 340.784149,532.450989 
	C344.926514,551.417908 336.165375,570.742859 318.899506,578.168640 
	C303.283234,584.885071 287.561951,584.318909 273.711975,573.471436 
	C260.264709,562.939392 256.051727,548.669800 259.504395,531.663391 
M297.450867,551.343811 
	C303.303741,552.553223 307.669830,549.388306 308.632294,543.238647 
	C309.433685,538.117798 304.961090,531.562378 300.390869,531.159241 
	C296.624939,530.827087 291.719330,536.087524 291.393860,541.051819 
	C291.107666,545.417175 292.973877,548.769592 297.450867,551.343811 
z"/>
<path fill="#F9FF5E" opacity="1.000000" stroke="none" 
	d="
M46.788208,142.749008 
	C55.959854,127.123116 66.987419,113.417633 78.800041,100.075317 
	C91.188301,86.082794 104.777176,73.654839 119.392601,62.268326 
	C135.281555,49.889637 152.475067,39.492710 170.993881,30.756384 
	C176.512466,29.465294 181.825119,28.571228 186.890839,26.919703 
	C198.318161,23.194155 209.575195,18.946646 221.000198,15.213511 
	C226.084488,13.552212 231.391449,12.546792 236.636688,11.428249 
	C237.534454,11.236805 238.648834,11.927226 239.631958,12.293906 
	C243.424622,13.708475 247.204636,15.156960 252.147125,17.032022 
	C251.349075,18.054560 250.488251,20.007843 248.991943,20.930252 
	C241.814545,25.354778 234.479202,29.524719 227.164017,33.722466 
	C225.879868,34.459358 224.468887,35.063316 223.040833,35.447273 
	C212.563553,38.264275 202.413712,41.663883 193.763718,48.665756 
	C192.096100,50.015633 189.183670,49.827679 186.950089,50.641235 
	C184.499680,51.504211 182.028290,52.313519 179.609772,53.258137 
	C178.715393,53.607464 177.910782,54.227962 177.124039,54.804996 
	C171.081421,59.237041 165.230240,63.961121 158.957642,68.037529 
	C154.863724,70.698074 150.111603,72.325600 145.748489,74.596748 
	C138.625900,78.304298 131.473251,81.976250 124.541702,86.020447 
	C120.312981,88.487686 116.410866,91.371521 110.734314,88.525055 
	C110.926033,93.729080 108.472473,95.261642 104.263069,96.468719 
	C100.897705,97.433762 97.879974,100.565834 95.365433,103.333450 
	C90.893738,108.255219 87.062729,113.756302 82.641945,118.728989 
	C81.465233,120.052612 79.118614,120.336182 76.627792,121.383842 
	C75.758202,122.543587 74.291397,124.499809 72.477158,126.919380 
	C74.680450,130.781219 73.369408,133.631851 68.345192,135.058777 
	C67.137627,135.401733 66.044769,136.723373 65.250648,137.843979 
	C62.391037,141.879318 59.682426,146.021637 56.913845,150.121552 
	C56.728180,150.396500 56.520599,150.885574 56.319126,150.887695 
	C49.814610,150.956268 51.090672,157.050842 48.803024,160.413147 
	C44.625519,166.553116 40.100601,172.455765 35.825497,178.531219 
	C35.094616,179.569885 35.021999,181.048035 34.411636,182.199295 
	C31.680973,187.349823 32.592289,193.249176 30.989220,198.563904 
	C29.678659,202.908829 27.355797,206.948410 24.544027,210.859818 
	C22.054550,204.420761 23.677311,198.344833 25.552933,192.550644 
	C27.415363,186.797211 30.236898,181.346863 32.741371,175.810440 
	C36.138420,168.300903 39.710762,160.869949 43.051945,153.336121 
	C44.514442,150.038437 45.590942,146.569534 46.788208,142.749008 
z"/>
<path fill="#FAFF5E" opacity="1.000000" stroke="none" 
	d="
M595.301392,29.530869 
	C610.155884,37.565586 625.220459,45.394211 639.551514,54.391216 
	C650.919067,61.527699 660.452393,71.146523 670.553833,80.021011 
	C683.366943,91.277809 694.249817,104.007843 705.174622,116.780312 
	C711.123474,123.735283 715.605286,131.976868 720.499512,139.794281 
	C726.821777,149.892883 733.137878,160.010849 738.976257,170.390671 
	C742.057678,175.869095 744.119324,181.921112 746.699097,188.067825 
	C745.756897,189.706436 744.756897,190.991379 743.247192,192.931290 
	C742.071960,191.584183 740.716370,190.494156 739.961731,189.082794 
	C737.129944,183.786118 734.833984,178.312866 730.049988,174.127289 
	C727.639832,172.018555 726.882141,168.111038 725.069275,165.209274 
	C722.009644,160.311737 718.905884,155.416138 715.439270,150.806564 
	C712.711365,147.179291 709.408936,143.984070 706.313843,139.992737 
	C706.553528,133.505859 701.815552,131.620422 698.002441,128.999390 
	C698.002441,128.999390 698.000000,129.000000 697.947754,128.647430 
	C696.689575,124.999825 695.138550,122.082802 691.000000,122.000305 
	C691.000000,122.000305 691.000000,122.000000 690.945618,121.642212 
	C690.119812,117.252823 687.843079,114.473846 683.997559,113.000359 
	C683.458984,112.812393 682.920349,112.624420 682.410522,111.987358 
	C682.159180,107.522301 679.888123,105.466438 676.002441,105.000198 
	C675.243774,103.853516 674.674622,102.503220 673.696350,101.592560 
	C666.294128,94.702332 659.972290,86.681351 650.318481,82.250237 
	C645.708496,80.134262 642.415100,75.323807 638.020996,72.525887 
	C630.167053,67.524933 622.013367,62.972801 613.828979,58.519802 
	C607.138489,54.879623 600.380676,51.276279 593.369141,48.331825 
	C580.388489,42.880711 567.331726,37.548523 554.050354,32.899086 
	C545.897705,30.045078 537.145630,28.938700 528.896484,26.313007 
	C523.210388,24.503113 517.868286,21.546827 512.508240,18.834518 
	C511.452179,18.300137 511.016907,16.538979 510.295319,15.343594 
	C511.492828,14.730645 512.635193,13.936096 513.902039,13.551519 
	C515.424133,13.089437 517.045105,12.814678 518.635864,12.745280 
	C522.150085,12.591963 525.729797,12.191457 529.179138,12.658079 
	C536.828430,13.692856 544.600769,14.547329 551.982727,16.662600 
	C563.811035,20.051943 575.341248,24.472057 587.049561,28.297003 
	C589.653625,29.147711 592.474121,29.335697 595.301392,29.530869 
z"/>
<path fill="#31222A" opacity="1.000000" stroke="none" 
	d="
M104.930771,354.814087 
	C108.750504,341.144379 112.570236,327.474701 116.425758,313.676880 
	C116.665733,313.799561 116.400978,313.548889 116.132591,313.544952 
	C113.612717,313.507782 111.092209,313.512817 108.571892,313.505676 
	C108.666573,309.747772 108.004784,305.725891 109.184174,302.346558 
	C109.749664,300.726227 113.752396,300.163788 116.285843,299.419830 
	C118.105667,298.885437 120.095253,298.961517 121.966187,298.563507 
	C132.809586,296.256653 143.569580,293.447479 154.500473,291.701477 
	C161.597580,290.567871 168.697083,295.683197 171.229858,302.108917 
	C175.537430,298.965271 179.803711,295.726898 184.198090,292.672882 
	C191.436386,287.642365 198.047028,288.969513 202.894669,296.373505 
	C206.668579,302.137543 208.082306,308.296875 206.985489,315.288666 
	C205.582184,324.234314 205.192001,333.338928 203.787003,342.284241 
	C202.624664,349.684723 198.490372,355.916595 193.187805,360.952606 
	C184.012115,369.667114 170.299179,365.692322 164.965958,353.107239 
	C161.087708,343.955658 161.584641,334.693451 164.360046,325.359741 
	C165.440445,321.726410 166.228210,318.006073 166.744965,314.016327 
	C159.214203,323.079895 148.971436,327.884369 138.882095,332.809326 
	C135.685623,334.369629 132.027008,335.365814 128.488846,335.726074 
	C125.493370,336.031097 123.783272,337.106018 123.120346,339.833069 
	C121.090889,348.181671 118.401222,356.466309 117.427002,364.943451 
	C116.690407,371.352905 113.646233,373.560516 108.098518,374.225128 
	C107.464439,374.301117 106.865501,374.670441 105.925705,375.030273 
	C104.900055,374.856232 104.198975,374.555664 103.173325,373.864349 
	C102.758522,373.322754 102.641441,373.196899 102.497498,373.096039 
	C102.390190,371.953918 102.282883,370.811768 102.450882,369.098145 
	C102.839333,368.282654 102.900185,368.026245 102.908752,367.757385 
	C102.869942,367.346771 102.831123,366.936127 103.162201,366.240417 
	C103.455101,365.636658 103.378105,365.317932 103.301102,364.999237 
	C103.265793,364.501404 103.230484,364.003601 103.466232,363.001373 
	C103.616913,362.023804 103.496544,361.550598 103.376167,361.077423 
	C103.261055,360.307343 103.145935,359.537292 103.449677,358.276001 
	C104.222610,356.794586 104.576683,355.804321 104.930771,354.814087 
M173.994415,330.455780 
	C173.291885,331.415863 171.905807,332.449677 172.000061,333.323792 
	C172.529312,338.231293 172.973221,343.227692 174.330765,347.938904 
	C175.278061,351.226410 177.643600,354.105194 179.375656,357.166565 
	C182.229248,354.831879 185.610397,352.914246 187.843658,350.089203 
	C196.780106,338.784637 198.594208,325.355804 198.082443,311.504578 
	C198.000061,309.275208 196.044312,307.115021 194.954575,304.922821 
	C192.945557,306.350037 190.062225,307.342224 189.094391,309.287476 
	C186.382736,314.737549 184.016891,320.456177 182.372559,326.309814 
	C181.097092,330.850342 179.232376,332.570862 173.994415,330.455780 
M127.399826,324.914856 
	C127.054718,326.541199 126.709610,328.167511 126.273117,330.224457 
	C128.064774,330.073639 129.234299,330.319366 129.962173,329.862091 
	C140.042953,323.528564 150.217957,317.323242 160.015488,310.572205 
	C163.519928,308.157440 162.651337,305.206146 158.727036,303.382141 
	C152.890686,300.669434 136.216248,305.746033 133.223099,311.449982 
	C131.077133,315.539520 129.536377,319.946686 127.399826,324.914856 
z"/>
<path fill="#F3F653" opacity="1.000000" stroke="none" 
	d="
M120.978470,383.906372 
	C137.297958,382.072449 153.605179,380.120331 169.939178,378.426270 
	C222.635757,372.960938 275.343231,367.600677 328.044556,362.180939 
	C388.528809,355.960876 449.010040,349.711334 509.494720,343.495361 
	C524.702209,341.932495 539.917786,340.449127 555.776306,339.199188 
	C557.252380,339.290314 558.081787,339.111481 558.911194,338.932678 
	C560.994507,338.594055 563.077759,338.255432 565.384277,338.193451 
	C565.094604,338.824493 564.581787,339.178894 564.068970,339.533295 
	C564.274780,339.783600 564.480530,340.033936 564.686340,340.284241 
	C565.461243,339.530426 566.236084,338.776642 567.010925,338.022827 
	C568.326721,337.830231 569.642517,337.637634 571.593628,337.793152 
	C574.122986,337.738495 576.017090,337.335724 577.911133,336.932922 
	C580.326599,336.593658 582.742004,336.254364 585.578125,336.226746 
	C585.998840,336.538422 585.997559,336.998779 585.620178,337.000671 
	C583.981018,337.077118 582.719238,337.151672 581.457458,337.226196 
	C581.516663,337.549408 581.575867,337.872589 581.635071,338.195770 
	C583.090149,337.797577 584.545227,337.399384 586.202393,336.876648 
	C586.656799,336.552734 586.858643,336.311157 587.010010,336.027283 
	C589.401184,335.661011 591.792358,335.294739 594.705444,335.119293 
	C595.227356,335.310150 595.667847,335.347748 595.667847,335.347748 
	C595.667847,335.347748 596.006104,335.022217 596.006104,335.022217 
	C601.712952,334.344727 607.419739,333.667206 613.676758,333.150818 
	C614.226868,333.311981 614.668518,333.351196 614.668518,333.351196 
	C614.668518,333.351196 615.009888,333.027405 615.009888,333.027405 
	C618.051758,332.661011 621.093628,332.294586 624.568909,332.233734 
	C625.002319,332.539276 625.006409,333.000488 625.003174,333.000244 
	C625.000000,333.000000 624.999329,333.005951 624.638672,333.006653 
	C623.187012,333.342712 622.095947,333.678070 620.900391,334.303589 
	C622.194824,335.397827 623.593750,336.201965 624.992676,337.006104 
	C624.500732,337.591980 624.025574,338.672546 623.514343,338.689880 
	C615.101379,338.975739 606.658447,338.783478 598.274414,339.404144 
	C589.473755,340.055603 580.739685,341.559540 571.957092,342.510834 
	C550.908569,344.790649 529.840088,346.888458 508.795868,349.206360 
	C492.533661,350.997559 476.310791,353.150055 460.042999,354.884491 
	C445.424011,356.443115 430.755096,357.530396 416.131409,359.048706 
	C402.411011,360.473267 388.734497,362.320404 375.013947,363.743164 
	C359.949524,365.305267 344.845032,366.480408 329.780304,368.039795 
	C317.944000,369.264954 306.154694,370.942200 294.320282,372.188385 
	C283.865295,373.289368 273.370453,374.006042 262.904633,375.011475 
	C248.412460,376.403656 233.933777,377.935883 219.444092,379.354736 
	C206.649765,380.607635 193.844910,381.753204 181.051208,383.012299 
	C173.390472,383.766235 165.748718,384.716583 158.084946,385.434631 
	C155.266479,385.698730 152.409256,385.560211 149.569580,385.570892 
	C149.268295,385.572052 148.796661,385.149384 148.688644,385.244965 
	C143.080383,390.207153 135.900177,387.188446 129.572266,388.934326 
	C122.494690,390.887024 114.824104,393.214844 107.500206,388.015472 
	C109.175941,387.068512 110.645065,386.238312 112.017426,385.170044 
	C113.682930,384.600800 115.445190,384.269653 117.603119,384.238098 
	C117.998779,384.537720 117.997307,384.997559 117.797745,385.018005 
	C117.398026,385.180725 117.197868,385.322998 116.997711,385.465302 
	C117.114708,385.508942 117.282227,385.624298 117.339867,385.583710 
	C117.578476,385.415588 117.783882,385.200348 118.336838,384.993835 
	C119.440941,384.625610 120.209702,384.265991 120.978470,383.906372 
M611.484985,334.847351 
	C611.170776,334.907074 610.856628,334.966797 610.542419,335.026489 
	C610.854187,335.097809 611.165955,335.169128 611.484985,334.847351 
M593.119141,336.680634 
	C593.046753,336.680450 592.974365,336.680298 593.119141,336.680634 
M618.460327,333.496277 
	C618.460327,333.496277 618.515137,333.472992 618.460327,333.496277 
M589.492554,336.541443 
	C589.492554,336.541443 589.467896,336.487427 589.492554,336.541443 
z"/>
<path fill="#F0F44C" opacity="1.000000" stroke="none" 
	d="
M633.066040,255.230392 
	C632.824829,251.596680 632.306885,247.954910 632.412598,244.331329 
	C632.544617,239.807281 630.926575,238.164917 626.273804,238.685913 
	C610.912415,240.405975 595.516907,241.818314 580.138428,243.388275 
	C538.629822,247.625748 497.123352,251.883255 455.616058,256.133484 
	C409.972534,260.807312 364.327606,265.467407 318.686066,270.160675 
	C280.153442,274.122955 241.624695,278.122955 203.094452,282.108429 
	C171.014511,285.426697 138.934875,288.748108 106.218643,291.799500 
	C104.746460,291.711609 103.910751,291.892334 103.075043,292.073029 
	C101.630684,292.334534 100.186333,292.596069 98.365433,292.891785 
	C97.773315,287.201385 103.253494,287.627136 105.979752,287.041870 
	C113.999268,285.320160 122.302574,284.831451 130.518356,284.140411 
	C137.378922,283.563354 144.298492,283.638733 151.144562,282.952484 
	C157.949829,282.270355 164.675079,280.816803 171.473648,280.033356 
	C179.276138,279.134155 187.125702,278.651733 194.945587,277.893188 
	C204.042542,277.010742 213.125076,275.979370 222.222183,275.098541 
	C229.870316,274.357941 237.533829,273.777191 245.184097,273.057251 
	C251.487045,272.464111 257.785065,271.811127 264.076904,271.109528 
	C269.829254,270.468140 275.573273,269.749237 281.315613,269.022156 
	C287.547699,268.233063 293.770447,267.370270 300.002899,266.584229 
	C309.606506,265.373047 319.191803,263.925262 328.830017,263.114471 
	C334.519836,262.635803 340.316986,263.521362 346.027374,263.169067 
	C350.022034,262.922668 353.915466,261.253021 357.917053,260.860229 
	C368.352692,259.835968 378.828522,259.229523 389.277863,258.334229 
	C400.092316,257.407623 410.899536,256.388611 421.699768,255.308319 
	C427.128601,254.765320 432.541107,254.043228 437.949860,253.319061 
	C445.677826,252.284363 453.384827,251.084213 461.124847,250.155197 
	C463.172028,249.909470 465.351379,250.728195 467.389832,250.456436 
	C469.350952,250.194992 471.174164,248.710327 473.119202,248.561142 
	C476.008606,248.339508 478.965363,249.072891 481.867828,248.918549 
	C483.983765,248.806030 486.069092,247.954117 488.144836,247.351852 
	C488.753296,247.175323 489.277435,246.453033 489.848541,246.442764 
	C495.118164,246.348068 500.397034,246.511932 505.657227,246.263092 
	C508.147186,246.145294 510.579987,245.100769 513.077515,244.811066 
	C521.374268,243.848740 529.712036,242.251343 537.986694,242.496368 
	C542.229980,242.622025 545.620483,241.395950 549.442322,240.647003 
	C554.867004,239.583984 560.558167,239.907837 566.129822,239.552475 
	C568.032166,239.431152 569.913818,239.014221 571.811951,238.792908 
	C575.385254,238.376221 578.797058,235.479935 582.660034,238.481400 
	C583.438965,239.086639 585.541138,237.882782 587.055115,237.665314 
	C597.049011,236.229660 607.013855,234.406311 617.059692,233.584518 
	C623.375793,233.067810 630.577637,231.785034 635.335266,237.731491 
	C637.572571,240.527893 638.605408,244.362473 639.857056,247.844131 
	C640.574463,249.839828 640.636169,252.071259 640.818848,254.892090 
	C638.774475,256.390625 636.904358,257.193573 634.842285,257.784973 
	C634.122192,256.792389 633.594055,256.011383 633.066040,255.230392 
z"/>
<path fill="#ED1E24" opacity="1.000000" stroke="none" 
	d="
M494.194214,524.926880 
	C494.194275,528.029358 494.194275,530.643860 494.194275,533.807373 
	C492.124756,533.549194 490.577148,533.679749 489.315582,533.140747 
	C484.690338,531.164795 482.313171,533.584473 481.024445,537.448181 
	C480.255951,539.752319 480.059448,542.328979 480.038696,544.786804 
	C479.941864,556.256287 479.995758,567.726929 479.995758,579.600342 
	C469.125702,579.600342 458.459167,579.600342 447.255096,579.600342 
	C447.255096,567.666504 447.139771,555.895081 447.306152,544.127625 
	C447.383392,538.663940 447.295227,533.043152 448.512268,527.778015 
	C453.024078,508.258942 467.510956,499.765961 487.180084,501.530396 
	C494.216766,502.161652 494.193207,502.427216 494.194000,509.467163 
	C494.194550,514.457764 494.194153,519.448303 494.194214,524.926880 
z"/>
<path fill="#302E27" opacity="1.000000" stroke="none" 
	d="
M99.000481,312.569183 
	C99.330849,315.324341 99.661224,318.079468 100.023773,321.683960 
	C99.504486,330.390442 98.953011,338.247528 98.401535,346.104645 
	C98.357040,346.545685 98.312553,346.986755 97.991470,347.947815 
	C95.079224,360.112640 89.768890,369.948669 79.022713,376.108704 
	C78.545113,376.180756 78.067513,376.252838 76.847832,376.371704 
	C74.077568,376.259521 72.049377,376.100525 70.021194,375.941559 
	C57.520702,371.312927 53.257740,357.463470 55.430466,345.200836 
	C57.157051,335.456207 60.190380,325.810364 63.790787,316.567566 
	C67.442535,307.193024 76.417519,303.593903 85.342834,301.016907 
	C87.248009,300.466797 89.991196,302.819031 92.848518,304.216919 
	C95.232643,307.256165 97.116562,309.912689 99.000481,312.569183 
M77.075401,365.769501 
	C89.273323,353.000336 91.542213,337.144562 90.939674,320.486237 
	C90.884605,318.963684 89.368469,316.334595 88.371361,316.256561 
	C86.525276,316.112061 84.059067,316.992706 82.772095,318.331635 
	C81.127869,320.042206 80.167725,322.545197 79.314766,324.855133 
	C77.132370,330.765320 75.172615,336.757690 73.170456,342.581543 
	C70.038246,342.168671 67.663284,341.855591 65.325806,341.547485 
	C63.272717,349.768677 66.248451,356.734558 68.725487,363.752014 
	C70.592316,369.040741 71.727333,369.351440 77.075401,365.769501 
z"/>
<path fill="#323027" opacity="1.000000" stroke="none" 
	d="
M687.921265,251.941498 
	C698.662109,241.277740 711.448730,238.124130 725.707397,240.128174 
	C727.322388,240.355164 729.611877,241.937134 730.052063,243.364639 
	C732.773621,252.189438 725.635803,260.387299 716.537903,260.191772 
	C710.505554,260.062164 704.259583,260.652344 698.444824,262.189575 
	C692.536926,263.751465 692.270935,267.290649 697.222656,270.782288 
	C699.926941,272.689178 702.962708,274.118774 705.776184,275.879913 
	C708.585022,277.638153 711.542725,279.267365 714.017700,281.430786 
	C722.761475,289.073883 722.806335,300.519104 713.009277,306.720276 
	C707.308533,310.328644 699.867981,312.426300 693.085999,312.773102 
	C684.748901,313.199341 681.716003,306.865082 685.724304,299.488342 
	C687.942261,295.406586 690.853760,291.701660 693.769287,287.354645 
	C699.242065,293.545319 690.457886,297.765747 694.247559,303.177002 
	C700.887756,302.632141 706.570251,299.168701 711.421997,294.432892 
	C712.212036,293.661713 711.546753,290.075195 710.407898,288.931335 
	C708.121887,286.635468 705.123596,284.992706 702.275696,283.325684 
	C697.835754,280.726715 693.055176,278.657837 688.814758,275.780945 
	C680.648743,270.240753 679.587402,264.022003 684.916260,255.729691 
	C685.720032,254.478973 686.749451,253.373199 687.921265,251.941498 
z"/>
<path fill="#323027" opacity="1.000000" stroke="none" 
	d="
M638.365173,306.999603 
	C637.927063,302.340393 637.489014,297.681183 637.325256,292.314026 
	C642.200134,286.107910 646.800720,280.609741 651.427063,275.080719 
	C640.875793,264.997528 643.015015,254.302307 657.466431,249.406891 
	C662.656555,247.648743 668.461121,247.704300 673.985229,246.932083 
	C676.065430,250.541382 679.120911,253.935547 679.976685,257.814972 
	C681.025452,262.569122 676.481323,262.647339 673.024780,263.344910 
	C667.424316,264.475189 661.866699,265.860962 656.363037,267.397034 
	C654.969910,267.785828 653.849304,269.150543 652.603455,270.066833 
	C652.747314,270.620392 652.891113,271.173920 653.034973,271.727448 
	C656.806702,271.401917 660.573853,270.954285 664.352478,270.810944 
	C665.866699,270.753448 667.406311,271.365540 668.934326,271.672882 
	C668.263184,273.208801 667.979858,275.159576 666.855469,276.210663 
	C661.175354,281.520630 655.174866,286.488556 649.511353,291.815186 
	C647.628845,293.585693 646.120422,295.919556 644.955811,298.252838 
	C642.639404,302.893890 644.276306,305.902649 649.310852,305.165131 
	C657.626526,303.946930 665.771912,301.599426 674.034790,299.958069 
	C675.593628,299.648407 677.365601,300.411835 679.039246,300.680145 
	C678.639587,302.353271 678.767273,304.967072 677.749512,305.537628 
	C673.199951,308.088013 668.452881,310.434906 663.524292,312.112579 
	C659.653259,313.430267 655.412415,313.661194 650.686646,314.282013 
	C646.146667,311.792633 642.255920,309.396118 638.365173,306.999603 
z"/>
<path fill="#EEF650" opacity="1.000000" stroke="none" 
	d="
M673.859985,246.650070 
	C668.461121,247.704300 662.656555,247.648743 657.466431,249.406891 
	C643.015015,254.302307 640.875793,264.997528 651.427063,275.080719 
	C646.800720,280.609741 642.200134,286.107910 637.365601,291.861328 
	C636.514526,285.819763 635.897461,279.522949 635.460510,272.477844 
	C635.438477,267.151886 635.236389,262.574219 635.034241,257.996552 
	C636.904358,257.193573 638.774475,256.390625 640.822693,255.296387 
	C643.665344,253.500305 646.649536,252.370102 648.934326,250.420380 
	C655.751343,244.603027 663.416260,241.703445 672.779846,242.468231 
	C673.070557,243.655609 673.402649,245.011826 673.859985,246.650070 
z"/>
<path fill="#F1FE50" opacity="1.000000" stroke="none" 
	d="
M12.010250,546.985962 
	C8.941926,533.717163 6.210030,520.270142 3.489921,506.424927 
	C7.985207,508.339569 10.906456,511.406097 11.289535,516.996521 
	C11.849097,525.162598 13.415913,533.255615 14.199839,541.413757 
	C14.365375,543.136475 13.004331,545.005859 12.010250,546.985962 
z"/>
<path fill="#F0F44C" opacity="1.000000" stroke="none" 
	d="
M638.363281,307.406036 
	C642.255920,309.396118 646.146667,311.792633 650.338501,314.437927 
	C643.657715,316.367126 642.306213,321.274567 646.463501,330.998718 
	C640.449097,335.872253 633.005981,336.053528 625.398499,337.003479 
	C623.593750,336.201965 622.194824,335.397827 621.260376,334.299194 
	C622.816406,333.671753 623.907837,333.338867 624.999329,333.005951 
	C624.999329,333.005951 625.000000,333.000000 625.208374,332.859863 
	C625.668213,332.493622 625.856506,332.223511 625.981750,331.909424 
	C628.698914,331.607178 631.416016,331.304901 634.677979,331.159729 
	C635.222839,331.316803 635.673950,331.353485 635.673950,331.353485 
	C635.673950,331.353485 636.022705,331.023743 636.022705,331.023743 
	C636.419434,330.898560 636.816162,330.773346 637.727417,330.937378 
	C639.105713,330.788849 639.969543,330.351135 640.833435,329.913452 
	C640.875610,329.198151 640.917786,328.482849 641.210144,327.124817 
	C641.651123,324.794220 641.841858,323.106354 642.032532,321.418488 
	C641.674927,321.399597 641.317261,321.380676 640.959595,321.361755 
	C640.959595,323.245789 640.959595,325.129822 640.959595,327.013855 
	C640.093567,320.613403 639.227478,314.212921 638.363281,307.406036 
M632.138672,332.758240 
	C632.429810,332.701904 632.721008,332.645599 633.012146,332.589294 
	C632.945923,332.465912 632.862915,332.230377 632.816223,332.237396 
	C632.525696,332.280914 632.243347,332.378784 632.138672,332.758240 
z"/>
<path fill="#F1FE50" opacity="1.000000" stroke="none" 
	d="
M551.986084,756.383179 
	C541.033936,759.375854 529.890076,762.208130 518.697144,764.831177 
	C515.498291,765.580872 512.157288,765.724060 508.435211,766.131714 
	C508.126556,761.811768 512.124023,761.944763 514.507568,761.417175 
	C519.962891,760.209839 525.685608,760.272705 531.221619,759.350891 
	C536.846497,758.414185 542.363098,756.842041 547.961609,755.720276 
	C549.156738,755.480835 550.500366,755.982849 551.986084,756.383179 
z"/>
<path fill="#C0C24C" opacity="1.000000" stroke="none" 
	d="
M79.275360,376.285767 
	C89.768890,369.948669 95.079224,360.112640 98.034569,348.278748 
	C100.050117,359.027527 89.840935,374.413849 79.275360,376.285767 
z"/>
<path fill="#F0F44C" opacity="1.000000" stroke="none" 
	d="
M99.031448,312.071228 
	C97.116562,309.912689 95.232643,307.256165 93.176971,304.315063 
	C92.497818,301.370239 91.990410,298.709991 91.483002,296.049774 
	C92.100723,296.289825 92.718445,296.529846 93.336166,296.769897 
	C94.704178,295.689728 96.072189,294.609589 97.638306,293.275879 
	C98.245087,299.205963 98.653748,305.389618 99.031448,312.071228 
z"/>
<path fill="#C0C24C" opacity="1.000000" stroke="none" 
	d="
M98.715897,345.956024 
	C98.953011,338.247528 99.504486,330.390442 100.053864,322.080750 
	C100.722305,326.413544 101.392845,331.198944 102.031952,336.398407 
	C101.010437,339.810791 100.020348,342.809113 98.715897,345.956024 
z"/>
<path fill="#F9FF5E" opacity="1.000000" stroke="none" 
	d="
M698.013428,129.366028 
	C701.815552,131.620422 706.553528,133.505859 706.134033,139.693039 
	C703.342834,136.575912 700.683594,133.154297 698.013428,129.366028 
z"/>
<path fill="#F9FF5E" opacity="1.000000" stroke="none" 
	d="
M675.774658,105.241180 
	C679.888123,105.466438 682.159180,107.522301 682.218994,111.769501 
	C680.023376,109.654381 675.164368,110.162254 675.774658,105.241180 
z"/>
<path fill="#F9FF5E" opacity="1.000000" stroke="none" 
	d="
M684.001343,113.373756 
	C687.843079,114.473846 690.119812,117.252823 690.945618,121.642517 
	C688.668396,119.249458 686.336731,116.498306 684.001343,113.373756 
z"/>
<path fill="#F9FF5E" opacity="1.000000" stroke="none" 
	d="
M691.168579,122.303055 
	C695.138550,122.082802 696.689575,124.999825 697.947754,128.646820 
	C693.336182,129.413773 693.382324,124.920029 691.168579,122.303055 
z"/>
<path fill="#F1FE50" opacity="1.000000" stroke="none" 
	d="
M561.712158,753.702637 
	C560.537231,754.496887 559.112305,755.074158 557.354187,755.672119 
	C558.501404,754.957153 559.981750,754.221436 561.712158,753.702637 
z"/>
<path fill="#C0C24C" opacity="1.000000" stroke="none" 
	d="
M70.290054,376.197571 
	C72.049377,376.100525 74.077568,376.259521 76.522736,376.531372 
	C74.812790,376.580719 72.685844,376.517181 70.290054,376.197571 
z"/>
<path fill="#31222A" opacity="1.000000" stroke="none" 
	d="
M104.646172,354.918335 
	C104.576683,355.804321 104.222610,356.794586 103.552017,357.892517 
	C103.198029,357.296021 103.160576,356.591858 103.141479,355.535889 
	C103.560410,355.130280 103.960991,355.076447 104.646172,354.918335 
z"/>
<path fill="#31222A" opacity="1.000000" stroke="none" 
	d="
M103.206879,365.240784 
	C103.378105,365.317932 103.455101,365.636658 103.332596,365.977844 
	C103.126274,365.827667 103.119453,365.654999 103.206879,365.240784 
z"/>
<path fill="#31222A" opacity="1.000000" stroke="none" 
	d="
M103.376526,361.372375 
	C103.496544,361.550598 103.616913,362.023804 103.636063,362.663055 
	C103.482185,362.441864 103.429535,362.054565 103.376526,361.372375 
z"/>
<path fill="#F1FE50" opacity="1.000000" stroke="none" 
	d="
M506.964478,766.069153 
	C506.926086,766.281677 506.765106,766.341492 506.346680,766.415771 
	C506.340057,766.258972 506.590942,766.087708 506.964478,766.069153 
z"/>
<path fill="#F1FE50" opacity="1.000000" stroke="none" 
	d="
M554.886353,755.932007 
	C554.835999,756.143250 554.648193,756.215515 554.157104,756.309753 
	C554.152222,756.152161 554.450562,755.972656 554.886353,755.932007 
z"/>
<path fill="#F1FE50" opacity="1.000000" stroke="none" 
	d="
M553.072876,756.356506 
	C553.162415,756.561707 552.753540,756.699036 552.556274,756.629028 
	C552.567139,756.423157 552.775269,756.287231 553.072876,756.356506 
z"/>
<path fill="#31222A" opacity="1.000000" stroke="none" 
	d="
M102.753983,367.902222 
	C102.900185,368.026245 102.839333,368.282654 102.621521,368.693817 
	C102.403137,368.575409 102.430588,368.304108 102.753983,367.902222 
z"/>
<path fill="#31222A" opacity="1.000000" stroke="none" 
	d="
M102.454269,373.258118 
	C102.641441,373.196899 102.758522,373.322754 102.904587,373.590790 
	C102.697083,373.764954 102.513954,373.669037 102.454269,373.258118 
z"/>
<path fill="#2F2229" opacity="1.000000" stroke="none" 
	d="
M257.753784,337.585083 
	C258.412781,342.600220 259.302277,347.170929 259.491638,351.770416 
	C259.589264,354.142334 258.441895,356.565521 257.857086,358.965546 
	C255.710220,357.813446 252.765335,357.200256 251.558594,355.413300 
	C247.021484,348.694733 243.060028,341.588013 238.858505,334.641510 
	C238.222397,333.589783 237.456955,332.616241 235.943695,330.450867 
	C233.369659,339.042725 231.052124,346.383667 228.996750,353.797302 
	C227.885315,357.806122 219.394806,365.392426 215.352554,365.001831 
	C214.427460,364.912415 212.911774,362.189423 213.093857,360.876221 
	C213.958801,354.638092 215.416748,348.484894 216.443832,342.265137 
	C216.793152,340.149750 216.499207,337.928101 216.499207,335.435211 
	C217.675659,333.363922 219.703110,330.730988 220.753204,327.753326 
	C223.039474,321.270416 224.827621,314.611877 226.791061,308.118622 
	C225.916107,307.702179 225.589096,307.396698 225.340637,307.450958 
	C222.086777,308.161407 218.509613,310.526489 216.409042,305.638000 
	C214.559982,301.334808 217.164536,292.455841 221.558792,290.643158 
	C234.043289,285.493011 246.875107,281.318573 260.677429,282.808594 
	C267.880737,283.586243 272.201508,289.679840 271.038666,296.913269 
	C269.471191,306.664124 263.463287,313.759613 256.135559,319.647552 
	C253.471695,321.788025 253.046631,323.411072 254.116104,326.269226 
	C255.453323,329.842926 256.514038,333.520081 257.753784,337.585083 
M256.094696,311.549591 
	C258.090698,308.571564 260.086700,305.593536 262.279175,302.322388 
	C256.494904,298.390320 250.896149,300.383667 245.948486,301.623688 
	C231.407501,305.267975 230.642075,306.594116 235.198975,320.091919 
	C236.777878,324.768768 238.824249,325.531067 242.921967,322.479858 
	C247.303528,319.217346 251.381058,315.546478 256.094696,311.549591 
z"/>
<path fill="#302229" opacity="1.000000" stroke="none" 
	d="
M417.273621,310.519836 
	C416.896210,315.495728 416.649567,320.039215 416.346558,325.621124 
	C418.683746,323.578796 420.325226,322.144409 422.866302,319.923920 
	C423.231445,321.990295 424.053864,323.595947 423.563446,324.373199 
	C420.764069,328.809784 418.306488,333.571167 412.816925,335.602875 
	C408.417358,337.231110 404.790466,336.471588 403.778381,331.958771 
	C402.650543,326.929565 402.393707,321.514374 402.849884,316.363892 
	C403.594269,307.958710 405.230591,299.632935 406.474091,291.271179 
	C406.690735,289.814453 406.826416,288.345734 407.072266,286.267242 
	C406.117035,286.862366 405.454437,287.039032 405.218353,287.456726 
	C398.788452,298.832916 392.128204,310.092072 386.130096,321.693237 
	C383.348755,327.072784 381.639679,333.056244 379.872498,338.895447 
	C378.377777,343.834381 375.386780,346.858887 370.528656,348.240509 
	C366.820496,349.295135 365.151672,348.267609 364.711487,344.076447 
	C363.578979,333.293213 365.269470,322.910278 367.782104,312.503571 
	C369.609283,304.936005 370.766327,297.209045 372.434998,289.599823 
	C373.461426,284.919342 377.317474,283.231201 383.406586,284.415588 
	C387.768616,285.264008 390.457062,289.123230 389.717896,293.563324 
	C389.125336,297.123016 388.460175,300.670593 387.827209,304.223541 
	C388.230957,304.417328 388.634705,304.611145 389.038452,304.804932 
	C391.035431,301.545288 392.930878,298.217804 395.052368,295.041290 
	C398.548248,289.807007 401.644958,284.144287 405.957886,279.672974 
	C408.956207,276.564484 413.528534,274.649658 417.731964,273.120056 
	C421.885651,271.608582 424.614716,274.259583 424.860107,278.361877 
	C425.042633,281.413483 424.313599,284.599091 423.547546,287.612366 
	C421.634277,295.138275 419.468689,302.599976 417.273621,310.519836 
z"/>
<path fill="#32222A" opacity="1.000000" stroke="none" 
	d="
M634.842285,257.784973 
	C635.236389,262.574219 635.438477,267.151886 635.403076,271.990112 
	C633.646851,276.057526 632.191406,279.891083 630.598328,283.666534 
	C624.466064,298.199158 613.743469,308.759888 601.228210,317.859680 
	C595.312195,322.161163 589.556274,326.364258 581.921448,327.277985 
	C578.849243,327.645691 575.613037,328.233734 574.852600,324.939911 
	C574.233948,322.259888 575.571228,319.083160 576.272461,316.182556 
	C576.409119,315.617310 577.561462,315.075470 578.326477,314.918182 
	C587.427551,313.046967 589.796204,306.358673 591.051208,298.276794 
	C592.368408,289.794250 594.527954,281.442474 596.472046,272.316833 
	C594.664978,272.737183 593.611267,272.913666 592.601135,273.229614 
	C588.968384,274.365784 586.958923,273.188354 586.180420,269.342987 
	C584.385376,260.476410 585.364014,258.342560 593.819946,255.708969 
	C603.300293,252.756317 612.765259,249.025497 622.967285,250.890457 
	C626.266052,251.493454 629.315491,253.460754 632.772461,255.017181 
	C633.594055,256.011383 634.122192,256.792389 634.842285,257.784973 
M616.924011,290.396332 
	C620.043579,284.619934 623.305908,278.914490 626.224976,273.038483 
	C627.775146,269.917938 626.585327,267.820984 622.868835,267.943146 
	C618.746460,268.078674 614.631775,268.437042 610.512207,268.670776 
	C605.128418,268.976257 602.737122,272.134247 601.840149,277.171234 
	C600.739868,283.349854 599.161682,289.442780 598.034241,295.617340 
	C597.380249,299.198792 597.205811,302.867767 596.778137,306.845520 
	C602.765503,305.061188 607.926636,300.795410 616.924011,290.396332 
z"/>
<path fill="#32212A" opacity="1.000000" stroke="none" 
	d="
M493.929138,325.919250 
	C487.092773,331.120605 480.866943,336.732117 472.465393,338.495758 
	C468.818848,339.261200 464.619263,340.614227 462.558563,335.743805 
	C460.951263,331.944977 463.274963,327.065521 468.269775,325.683777 
	C474.916229,323.845184 477.388916,319.549530 478.521271,313.343140 
	C480.266724,303.776703 482.449738,294.290100 484.604218,284.020782 
	C482.420380,284.499817 481.221710,284.898529 479.999847,284.990936 
	C478.881622,285.075439 476.908508,285.135468 476.739929,284.679016 
	C475.582153,281.544067 474.141724,278.272461 474.131927,275.040833 
	C474.125549,272.947540 475.982330,269.487061 477.698639,268.977325 
	C486.880341,266.250458 496.200470,263.755890 505.643372,262.253693 
	C509.593994,261.625244 514.260986,262.963654 518.074585,264.621521 
	C523.406921,266.939575 525.089050,273.600311 523.598022,280.721619 
	C519.650513,299.574738 509.189117,314.120148 493.929138,325.919250 
M515.031555,281.616272 
	C514.837219,281.170837 514.747986,280.437439 514.432922,280.322357 
	C507.663727,277.850281 500.788544,278.952362 494.631561,281.602844 
	C492.206268,282.646912 491.248535,287.357910 489.885986,290.512878 
	C489.108368,292.313477 488.743225,294.322327 488.396942,296.273743 
	C487.137634,303.370148 485.964569,310.481842 484.738403,317.709137 
	C494.246460,317.553650 512.050720,296.308167 515.031555,281.616272 
z"/>
<path fill="#302229" opacity="1.000000" stroke="none" 
	d="
M330.904266,310.959167 
	C329.189301,319.962433 327.516449,328.542877 325.843628,337.123291 
	C326.163849,337.381348 326.484070,337.639374 326.804321,337.897430 
	C328.954224,336.038269 331.174164,334.253571 333.241943,332.307129 
	C342.407898,323.679108 347.053650,312.657928 350.209564,300.739685 
	C351.692688,295.138580 354.028442,289.767792 355.843201,284.248352 
	C357.136597,280.314697 360.450073,280.978668 363.251984,281.126160 
	C363.742706,281.151978 364.748566,284.355286 364.373718,285.793213 
	C361.576965,296.521454 358.405457,307.151459 355.543030,317.863434 
	C354.476654,321.853973 353.723419,325.957977 353.242188,330.058899 
	C353.075134,331.482086 353.836487,333.295532 354.743530,334.502563 
	C356.422455,336.736725 357.191284,338.514648 355.097595,341.059662 
	C352.128021,344.669373 348.361542,346.278076 344.142548,344.967224 
	C342.458984,344.444153 341.232269,341.564636 340.389648,339.514496 
	C339.768372,338.002991 340.107727,336.096680 339.950562,333.029327 
	C335.877136,336.466125 332.801453,339.089142 329.692505,341.672150 
	C328.172821,342.934753 326.734344,344.395020 325.013885,345.299408 
	C315.721710,350.184143 307.447083,345.285278 308.729401,334.944672 
	C310.462372,320.970184 313.384186,307.139709 315.981903,293.282318 
	C316.191803,292.162628 317.774384,290.562103 318.826385,290.474579 
	C322.200348,290.193970 325.772430,289.934570 328.994598,290.748962 
	C333.738220,291.947845 335.120392,295.278656 333.810486,299.988922 
	C332.834381,303.498779 331.899597,307.020111 330.904266,310.959167 
z"/>
<path fill="#32222A" opacity="1.000000" stroke="none" 
	d="
M527.271240,303.881287 
	C528.873291,303.462769 530.684509,303.329315 533.571472,303.116608 
	C540.932800,290.045715 550.979492,277.213043 551.871033,260.252594 
	C552.000366,257.791107 552.446960,255.208817 553.411560,252.968735 
	C554.314026,250.873245 556.197632,247.525818 557.477173,247.602554 
	C560.494995,247.783508 564.300232,248.925156 566.119995,251.083649 
	C567.991028,253.302795 568.540466,257.195557 568.513062,260.345886 
	C568.444336,268.268951 567.724304,276.186340 567.258911,284.217804 
	C570.185730,284.650482 573.175049,279.946899 576.097656,284.303223 
	C575.890503,284.759186 575.793152,285.470367 575.486023,285.576996 
	C566.154663,288.815735 565.772339,296.726898 566.093262,304.513184 
	C566.365845,311.124451 567.830444,317.679108 568.410583,324.290131 
	C568.568665,326.092224 567.437866,328.007416 566.898560,329.870697 
	C564.760193,329.110077 561.948547,328.936127 560.648987,327.444641 
	C558.909485,325.448334 558.091797,322.503357 557.321594,319.837646 
	C555.630981,313.986938 554.219116,308.055664 552.569214,301.677124 
	C545.527771,306.061157 537.130005,307.643921 534.460754,316.600098 
	C533.876343,318.560913 532.051147,320.128754 530.930481,321.959015 
	C529.686035,323.991333 527.972107,325.974823 525.956909,323.716858 
	C524.510803,322.096588 523.253052,318.840576 523.930054,317.099152 
	C525.332458,313.491943 528.079651,310.407501 530.404114,306.912262 
	C529.348999,305.921356 528.414673,305.043854 527.271240,303.881287 
M551.662537,288.025085 
	C551.277954,286.382782 550.893372,284.740448 550.508789,283.098145 
	C550.150452,283.086090 549.792114,283.074066 549.433777,283.062042 
	C547.492981,287.864746 545.552124,292.667450 543.318665,298.194244 
	C550.827026,296.554840 551.922791,295.167084 551.662537,288.025085 
z"/>
<path fill="#302229" opacity="1.000000" stroke="none" 
	d="
M292.114532,343.005859 
	C289.944824,347.068176 288.355133,351.131317 285.671875,354.255096 
	C283.494904,356.789429 280.478821,354.908051 280.164612,352.213531 
	C279.388794,345.560303 278.495697,338.704315 279.309906,332.135620 
	C280.384766,323.464508 283.043396,314.989502 285.025299,306.431122 
	C285.474213,304.492554 286.023102,302.573212 286.382599,300.618591 
	C287.423553,294.958771 286.383667,293.705750 280.555237,292.701019 
	C277.422668,292.161011 274.356445,291.235992 271.260254,290.484680 
	C271.148743,289.779144 271.037201,289.073608 270.925690,288.368073 
	C275.856140,286.033051 280.582214,282.973450 285.759369,281.512848 
	C296.758881,278.409790 307.979736,276.077576 319.154907,273.635468 
	C320.109741,273.426788 322.361145,274.748688 322.365967,275.372284 
	C322.384979,277.822083 322.604858,281.242645 321.166260,282.522736 
	C318.430389,284.957123 314.765808,286.755798 311.190399,287.726349 
	C307.456665,288.739960 305.475952,290.819183 304.403687,294.161591 
	C299.713623,308.781250 294.122253,323.175812 293.242584,338.757874 
	C293.169403,340.053864 292.574463,341.320465 292.114532,343.005859 
z"/>
<path fill="#32212A" opacity="1.000000" stroke="none" 
	d="
M452.813354,292.701477 
	C451.250793,300.768768 449.740356,308.403290 448.226440,316.037140 
	C447.742645,318.476654 448.464233,320.149292 451.216705,319.818848 
	C456.603851,319.172089 456.495667,322.411011 455.786011,326.059082 
	C455.410004,327.991852 454.791016,329.877380 454.618591,330.522888 
	C448.202576,331.499847 442.396027,332.162842 436.697266,333.345245 
	C433.858124,333.934357 431.286804,335.761017 428.454071,336.457794 
	C427.141876,336.780609 425.109467,336.131409 424.139435,335.175842 
	C423.531342,334.576843 423.779022,332.068726 424.535645,331.322052 
	C426.702942,329.183411 429.136780,327.146759 431.817169,325.738800 
	C435.151642,323.987274 437.053864,321.889160 437.697906,317.946045 
	C439.110504,309.297516 441.572906,300.810730 442.792419,292.143341 
	C443.836548,284.722626 443.335114,284.652069 436.620514,281.785004 
	C438.076447,277.285095 439.155670,272.811737 444.926605,271.489288 
	C448.283905,270.719971 451.388336,268.909058 454.705658,267.889069 
	C460.140961,266.217865 463.701080,268.606079 464.068909,274.141876 
	C464.135651,275.146179 463.251892,277.029114 462.575653,277.143860 
	C453.694672,278.651245 453.517914,285.587250 452.813354,292.701477 
z"/>
<path fill="#F2FF5A" opacity="1.000000" stroke="none" 
	d="
M577.518311,336.887634 
	C576.017090,337.335724 574.122986,337.738495 571.992249,337.853516 
	C573.545532,337.324615 575.335449,337.083466 577.518311,336.887634 
z"/>
<path fill="#F2FF5A" opacity="1.000000" stroke="none" 
	d="
M640.531006,329.985321 
	C639.969543,330.351135 639.105713,330.788849 638.036682,330.984406 
	C638.630493,330.513916 639.429504,330.285553 640.531006,329.985321 
z"/>
<path fill="#F2FF5A" opacity="1.000000" stroke="none" 
	d="
M566.747498,337.966064 
	C566.236084,338.776642 565.461243,339.530426 564.686340,340.284241 
	C564.480530,340.033936 564.274780,339.783600 564.068970,339.533295 
	C564.581787,339.178894 565.094604,338.824493 565.789795,338.274048 
	C566.142822,338.021790 566.313477,337.965576 566.747498,337.966064 
z"/>
<path fill="#F2FF5A" opacity="1.000000" stroke="none" 
	d="
M558.547668,338.885773 
	C558.081787,339.111481 557.252380,339.290314 556.219421,339.272339 
	C556.738647,338.996613 557.461365,338.917755 558.547668,338.885773 
z"/>
<path fill="#F2FF5A" opacity="1.000000" stroke="none" 
	d="
M103.441483,292.118530 
	C103.910751,291.892334 104.746460,291.711609 105.786697,291.727722 
	C105.263466,292.004395 104.535698,292.084198 103.441483,292.118530 
z"/>
<path fill="#F2FF5A" opacity="1.000000" stroke="none" 
	d="
M117.997307,384.997559 
	C117.997307,384.997559 117.998779,384.537720 117.996193,384.307831 
	C118.738358,383.995239 119.483109,383.912537 120.603165,383.868103 
	C120.209702,384.265991 119.440941,384.625610 118.336090,384.992615 
	C118.000000,385.000000 117.997307,384.997559 117.997307,384.997559 
z"/>
<path fill="#F2FF5A" opacity="1.000000" stroke="none" 
	d="
M635.762451,330.967194 
	C636.022705,331.023743 635.673950,331.353485 635.673950,331.353485 
	C635.673950,331.353485 635.222839,331.316803 635.109863,331.197968 
	C635.165344,331.022949 635.333801,330.966797 635.762451,330.967194 
z"/>
<path fill="#F2FF5A" opacity="1.000000" stroke="none" 
	d="
M625.725708,331.898804 
	C625.856506,332.223511 625.668213,332.493622 625.211548,332.860107 
	C625.006409,333.000488 625.002319,332.539276 624.997925,332.308716 
	C625.152283,332.014832 625.310974,331.951477 625.725708,331.898804 
z"/>
<path fill="#F2FF5A" opacity="1.000000" stroke="none" 
	d="
M614.755859,332.969238 
	C615.009888,333.027405 614.668518,333.351196 614.668518,333.351196 
	C614.668518,333.351196 614.226868,333.311981 614.117310,333.194244 
	C614.172363,333.021393 614.337097,332.966248 614.755859,332.969238 
z"/>
<path fill="#F2FF5A" opacity="1.000000" stroke="none" 
	d="
M595.752930,334.965576 
	C596.006104,335.022217 595.667847,335.347748 595.667847,335.347748 
	C595.667847,335.347748 595.227356,335.310150 595.117920,335.192688 
	C595.172180,335.019775 595.335999,334.964355 595.752930,334.965576 
z"/>
<path fill="#F2FF5A" opacity="1.000000" stroke="none" 
	d="
M586.752319,335.969482 
	C586.858643,336.311157 586.656799,336.552734 586.202271,336.876038 
	C586.000000,337.000000 585.997559,336.998779 585.997559,336.998779 
	C585.997559,336.998779 585.998840,336.538422 585.996155,336.308258 
	C586.160522,336.022583 586.327637,335.967102 586.752319,335.969482 
z"/>
<path fill="#F3F857" opacity="1.000000" stroke="none" 
	d="
M208.062042,547.909058 
	C208.121277,546.164429 208.180496,544.869995 208.261826,543.092346 
	C211.570877,543.092346 214.804352,542.545044 217.697693,543.300476 
	C219.395676,543.743713 221.525375,546.192322 221.642502,547.866150 
	C221.735123,549.189819 219.275467,551.152161 217.542725,552.003906 
	C216.045639,552.739868 213.950470,552.149414 212.165222,552.432495 
	C208.809784,552.964600 207.565826,551.594788 208.062042,547.909058 
z"/>
<path fill="#F3F653" opacity="1.000000" stroke="none" 
	d="
M215.058899,513.085449 
	C212.894501,513.908997 211.040878,514.488586 208.571411,515.260803 
	C208.571411,511.347443 208.571411,508.025726 208.571411,503.454315 
	C211.169067,504.372192 214.272110,504.606537 215.731445,506.276917 
	C216.763412,507.458130 215.569748,510.583801 215.058899,513.085449 
z"/>
<path fill="#F3F857" opacity="1.000000" stroke="none" 
	d="
M530.263306,547.384766 
	C527.933960,542.531677 528.618530,538.480103 531.719421,534.570007 
	C536.479919,528.566956 541.048706,533.333618 545.960571,534.660583 
	C545.812439,540.817444 547.094421,547.599548 540.249878,551.350830 
	C536.035461,553.660645 533.105774,550.647949 530.263306,547.384766 
z"/>
<path fill="#F3F857" opacity="1.000000" stroke="none" 
	d="
M386.480072,550.839111 
	C380.851166,545.557251 380.301971,539.117432 384.745758,534.361267 
	C388.676636,530.154053 393.636597,530.228394 396.021454,535.450256 
	C398.061188,539.916382 398.365936,545.174805 399.645660,551.033142 
	C394.437775,551.033142 390.631683,551.033142 386.480072,550.839111 
z"/>
<path fill="#F3F857" opacity="1.000000" stroke="none" 
	d="
M297.108704,551.176270 
	C292.973877,548.769592 291.107666,545.417175 291.393860,541.051819 
	C291.719330,536.087524 296.624939,530.827087 300.390869,531.159241 
	C304.961090,531.562378 309.433685,538.117798 308.632294,543.238647 
	C307.669830,549.388306 303.303741,552.553223 297.108704,551.176270 
z"/>
<path fill="#F71097" opacity="1.000000" stroke="none" 
	d="
M174.376038,330.569733 
	C179.232376,332.570862 181.097092,330.850342 182.372559,326.309814 
	C184.016891,320.456177 186.382736,314.737549 189.094391,309.287476 
	C190.062225,307.342224 192.945557,306.350037 194.954559,304.922821 
	C196.044312,307.115021 198.000061,309.275208 198.082443,311.504578 
	C198.594208,325.355804 196.780106,338.784637 187.843658,350.089203 
	C185.610397,352.914246 182.229248,354.831879 179.375656,357.166565 
	C177.643600,354.105194 175.278061,351.226410 174.330765,347.938904 
	C172.973221,343.227692 172.529312,338.231293 172.000061,333.323792 
	C171.905807,332.449677 173.291885,331.415863 174.376038,330.569733 
z"/>
<path fill="#F51096" opacity="1.000000" stroke="none" 
	d="
M127.562714,324.563477 
	C129.536377,319.946686 131.077133,315.539520 133.223099,311.449982 
	C136.216248,305.746033 152.890686,300.669434 158.727036,303.382141 
	C162.651337,305.206146 163.519928,308.157440 160.015488,310.572205 
	C150.217957,317.323242 140.042953,323.528564 129.962173,329.862091 
	C129.234299,330.319366 128.064774,330.073639 126.273117,330.224457 
	C126.709610,328.167511 127.054718,326.541199 127.562714,324.563477 
z"/>
<path fill="#F2FF5A" opacity="1.000000" stroke="none" 
	d="
M586.000183,337.000610 
	C584.545227,337.399384 583.090149,337.797577 581.635071,338.195770 
	C581.575867,337.872589 581.516663,337.549408 581.457458,337.226196 
	C582.719238,337.151672 583.981018,337.077118 585.620178,337.000671 
	C585.997559,336.998779 586.000000,337.000000 586.000183,337.000610 
z"/>
<path fill="#F2FF5A" opacity="1.000000" stroke="none" 
	d="
M611.481323,335.043884 
	C611.165955,335.169128 610.854187,335.097809 610.542419,335.026489 
	C610.856628,334.966797 611.170776,334.907074 611.481323,335.043884 
z"/>
<path fill="#F2FF5A" opacity="1.000000" stroke="none" 
	d="
M624.638672,333.006653 
	C623.907837,333.338867 622.816406,333.671753 621.364868,334.009033 
	C622.095947,333.678070 623.187012,333.342712 624.638672,333.006653 
z"/>
<path fill="#F2FF5A" opacity="1.000000" stroke="none" 
	d="
M118.000748,385.001221 
	C117.783882,385.200348 117.578476,385.415588 117.339867,385.583710 
	C117.282227,385.624298 117.114708,385.508942 116.997711,385.465302 
	C117.197868,385.322998 117.398026,385.180725 117.797745,385.018005 
	C117.997307,384.997559 118.000000,385.000000 118.000748,385.001221 
z"/>
<path fill="#F2FF5A" opacity="1.000000" stroke="none" 
	d="
M593.010559,336.680359 
	C592.974365,336.680298 593.046753,336.680450 593.010559,336.680359 
z"/>
<path fill="#F2FF5A" opacity="1.000000" stroke="none" 
	d="
M618.487732,333.484619 
	C618.515137,333.472992 618.460327,333.496277 618.487732,333.484619 
z"/>
<path fill="#F2FF5A" opacity="1.000000" stroke="none" 
	d="
M589.480225,336.514435 
	C589.467896,336.487427 589.492554,336.541443 589.480225,336.514435 
z"/>
<path fill="#EBF652" opacity="1.000000" stroke="none" 
	d="
M76.805573,366.029114 
	C71.727333,369.351440 70.592316,369.040741 68.725487,363.752014 
	C66.248451,356.734558 63.272717,349.768677 65.325806,341.547485 
	C67.663284,341.855591 70.038246,342.168671 73.170456,342.581543 
	C75.172615,336.757690 77.132370,330.765320 79.314766,324.855133 
	C80.167725,322.545197 81.127869,320.042206 82.772095,318.331635 
	C84.059067,316.992706 86.525276,316.112061 88.371361,316.256561 
	C89.368469,316.334595 90.884605,318.963684 90.939674,320.486237 
	C91.542213,337.144562 89.273323,353.000336 76.805573,366.029114 
z"/>
<path fill="#F2FF5A" opacity="1.000000" stroke="none" 
	d="
M640.978638,327.013000 
	C640.959595,325.129822 640.959595,323.245789 640.959595,321.361755 
	C641.317261,321.380676 641.674927,321.399597 642.032532,321.418488 
	C641.841858,323.106354 641.651123,324.794220 641.219727,326.764893 
	C640.979004,327.047668 640.997681,327.012115 640.978638,327.013000 
z"/>
<path fill="#F2FF5A" opacity="1.000000" stroke="none" 
	d="
M632.048462,332.608429 
	C632.243347,332.378784 632.525696,332.280914 632.816223,332.237396 
	C632.862915,332.230377 632.945923,332.465912 633.012146,332.589294 
	C632.721008,332.645599 632.429810,332.701904 632.048462,332.608429 
z"/>
<path fill="#F71097" opacity="1.000000" stroke="none" 
	d="
M255.842987,311.801697 
	C251.381058,315.546478 247.303528,319.217346 242.921967,322.479858 
	C238.824249,325.531067 236.777878,324.768768 235.198975,320.091919 
	C230.642075,306.594116 231.407501,305.267975 245.948486,301.623688 
	C250.896149,300.383667 256.494904,298.390320 262.279175,302.322388 
	C260.086700,305.593536 258.090698,308.571564 255.842987,311.801697 
z"/>
<path fill="#F71097" opacity="1.000000" stroke="none" 
	d="
M616.733032,290.696930 
	C607.926636,300.795410 602.765503,305.061188 596.778137,306.845520 
	C597.205811,302.867767 597.380249,299.198792 598.034241,295.617340 
	C599.161682,289.442780 600.739868,283.349854 601.840149,277.171234 
	C602.737122,272.134247 605.128418,268.976257 610.512207,268.670776 
	C614.631775,268.437042 618.746460,268.078674 622.868835,267.943146 
	C626.585327,267.820984 627.775146,269.917938 626.224976,273.038483 
	C623.305908,278.914490 620.043579,284.619934 616.733032,290.696930 
z"/>
<path fill="#F51096" opacity="1.000000" stroke="none" 
	d="
M515.034058,282.030579 
	C512.050720,296.308167 494.246460,317.553650 484.738403,317.709137 
	C485.964569,310.481842 487.137634,303.370148 488.396942,296.273743 
	C488.743225,294.322327 489.108368,292.313477 489.885986,290.512878 
	C491.248535,287.357910 492.206268,282.646912 494.631561,281.602844 
	C500.788544,278.952362 507.663727,277.850281 514.432922,280.322357 
	C514.747986,280.437439 514.837219,281.170837 515.034058,282.030579 
z"/>
<path fill="#DE1184" opacity="1.000000" stroke="none" 
	d="
M551.749634,288.424927 
	C551.922791,295.167084 550.827026,296.554840 543.318665,298.194244 
	C545.552124,292.667450 547.492981,287.864746 549.433777,283.062042 
	C549.792114,283.074066 550.150452,283.086090 550.508789,283.098145 
	C550.893372,284.740448 551.277954,286.382782 551.749634,288.424927 
z"/>
</svg>